<?xml version="1.0" encoding="UTF-8"?>
<svg version="1.1" xmlns="http://www.w3.org/2000/svg" width="225" height="225">
<path d="M0 0 C74.25 0 148.5 0 225 0 C225 74.25 225 148.5 225 225 C150.75 225 76.5 225 0 225 C0 150.75 0 76.5 0 0 Z " fill="#493E95" transform="translate(0,0)"/>
<path d="M0 0 C3.4471633 2.85622102 5.76541895 5.54625684 7.1875 9.8125 C7.28581432 11.66705393 7.32572407 13.52493538 7.33276367 15.38208008 C7.33914352 16.52369095 7.34552338 17.66530182 7.35209656 18.84150696 C7.35320938 20.07587997 7.3543222 21.31025299 7.35546875 22.58203125 C7.36046135 24.48537483 7.36046135 24.48537483 7.36555481 26.4271698 C7.37062243 29.11464945 7.37339524 31.80202802 7.37280273 34.48950195 C7.37270131 37.92254204 7.38633526 41.35537441 7.40357494 44.78836536 C7.41741386 48.0737461 7.41678501 51.35912533 7.41796875 54.64453125 C7.42515427 55.87283157 7.43233978 57.1011319 7.43974304 58.36665344 C7.43666641 59.51772079 7.43358978 60.66878815 7.43041992 61.85473633 C7.43184494 62.86272781 7.43326996 63.8707193 7.43473816 64.90925598 C7.15591562 68.18338601 6.47479451 70.78989046 5.1875 73.8125 C4.1975 74.4725 3.2075 75.1325 2.1875 75.8125 C2.1875 76.8025 2.1875 77.7925 2.1875 78.8125 C-3.54660687 82.25296412 -8.14135379 82.71286871 -14.48828125 81.15625 C-21.54702597 78.89120328 -28.09271844 75.65863421 -31.84010315 68.98150635 C-34.70306808 63.0527302 -35.40315726 58.12637917 -35.34375 51.58984375 C-35.3475769 50.64492569 -35.35140381 49.70000763 -35.35534668 48.72645569 C-35.35805148 46.7423495 -35.3507914 44.75820677 -35.33398438 42.77416992 C-35.31253006 39.75423076 -35.33384739 36.73666372 -35.359375 33.71679688 C-35.35673194 31.77864064 -35.3516074 29.84048586 -35.34375 27.90234375 C-35.35184692 27.00942123 -35.35994385 26.11649872 -35.36828613 25.19651794 C-35.26509876 18.22992797 -33.59202121 12.81914162 -28.8046875 7.640625 C-20.48894041 1.44217145 -10.43242676 -4.40480241 0 0 Z " fill="#F8F9FA" transform="translate(177.8125,80.1875)"/>
<path d="M0 0 C12.375 3.375 12.375 3.375 17.32421875 4.82421875 C18.89526367 5.28344727 18.89526367 5.28344727 20.49804688 5.75195312 C21.55056641 6.06068359 22.60308594 6.36941406 23.6875 6.6875 C25.33008789 7.16799805 25.33008789 7.16799805 27.00585938 7.65820312 C29.67083357 8.43791173 32.33545439 9.21882799 35 10 C35 14.29 35 18.58 35 23 C22.25 21.125 22.25 21.125 20 20 C20 23.96 20 27.92 20 32 C21.39025391 31.98259766 21.39025391 31.98259766 22.80859375 31.96484375 C24.00613281 31.95582031 25.20367187 31.94679688 26.4375 31.9375 C27.63246094 31.92589844 28.82742187 31.91429688 30.05859375 31.90234375 C33 32 33 32 34 33 C34.14355117 37.00220653 34.04216403 40.99441683 34 45 C29.38 45 24.76 45 20 45 C20 55.89 20 66.78 20 78 C17.07125 78.99 14.1425 79.98 11.125 81 C10.20348145 81.31324219 9.28196289 81.62648438 8.33251953 81.94921875 C7.60661621 82.19285156 6.88071289 82.43648438 6.1328125 82.6875 C5.38918457 82.93886719 4.64555664 83.19023437 3.87939453 83.44921875 C2 84 2 84 0 84 C0 82.35 0 80.7 0 79 C5.75 76 5.75 76 8 76 C7.67 75.01 7.34 74.02 7 73 C7.495 72.01 7.495 72.01 8 71 C6.02 70.67 4.04 70.34 2 70 C1.67 71.65 1.34 73.3 1 75 C0.67 75 0.34 75 0 75 C0 50.25 0 25.5 0 0 Z " fill="#FBFAF9" transform="translate(39,79)"/>
<path d="M0 0 C2.625 0.375 2.625 0.375 5 1 C5.33 3.97 5.66 6.94 6 10 C8.475 10.495 8.475 10.495 11 11 C11.33 10.34 11.66 9.68 12 9 C12.66 11.31 13.32 13.62 14 16 C13.01 16 12.02 16 11 16 C11.33 17.32 11.66 18.64 12 20 C12.99 19.67 13.98 19.34 15 19 C15 18.01 15 17.02 15 16 C15.99 16 16.98 16 18 16 C18.04898438 16.67546875 18.09796875 17.3509375 18.1484375 18.046875 C18.22320312 18.93890625 18.29796875 19.8309375 18.375 20.75 C18.44460937 21.63171875 18.51421875 22.5134375 18.5859375 23.421875 C19.00383252 26.02386288 19.60645133 27.77433233 21 30 C21.66 30.33 22.32 30.66 23 31 C23 29.68 23 28.36 23 27 C23.99 27.33 24.98 27.66 26 28 C26.0246985 31.95099928 26.04285923 35.90196874 26.05493164 39.85302734 C26.06244036 41.85906551 26.0751447 43.86508202 26.08789062 45.87109375 C26.09111328 47.12792969 26.09433594 48.38476562 26.09765625 49.6796875 C26.10289307 50.84226074 26.10812988 52.00483398 26.11352539 53.20263672 C26 56 26 56 25 58 C24.01 58.66 23.02 59.32 22 60 C22 60.99 22 61.98 22 63 C16.26589313 66.44046412 11.67114621 66.90036871 5.32421875 65.34375 C-1.4047015 63.18453908 -6.07166315 60.02718601 -11 55 C-8.125 49.125 -8.125 49.125 -7 48 C-5.33382885 47.95936168 -3.66611905 47.957279 -2 48 C-2.00444122 47.42814972 -2.00888245 46.85629944 -2.01345825 46.26712036 C-2.05760951 40.33028658 -2.08783212 34.39349922 -2.10986328 28.45654297 C-2.11993825 26.23907579 -2.13359859 24.02162195 -2.15087891 21.80419922 C-2.17506163 18.62203688 -2.18646797 15.44004976 -2.1953125 12.2578125 C-2.20563507 11.26194122 -2.21595764 10.26606995 -2.22659302 9.24002075 C-2.22674408 8.31921722 -2.22689514 7.3984137 -2.22705078 6.44970703 C-2.231492 5.6369632 -2.23593323 4.82421936 -2.24050903 3.98684692 C-2 2 -2 2 0 0 Z M18 29 C18 29.66 18 30.32 18 31 C18.66 30.67 19.32 30.34 20 30 C19.34 29.67 18.68 29.34 18 29 Z " fill="#FAFAF9" transform="translate(158,96)"/>
<path d="M0 0 C3.43447339 0.8088009 5.6533316 2.2247622 8.2890625 4.5390625 C10.48268571 8.68747379 10.59583293 12.66000808 10.58984375 17.25390625 C10.59412888 17.987267 10.598414 18.72062775 10.60282898 19.47621155 C10.60855216 21.0218096 10.60908741 22.56743458 10.60473633 24.11303711 C10.60157695 26.46580362 10.6250567 28.81731061 10.65039062 31.16992188 C10.65266405 32.67708176 10.65336691 34.184245 10.65234375 35.69140625 C10.6615535 36.38846176 10.67076324 37.08551727 10.68025208 37.80369568 C10.62568841 43.62127593 9.088807 47.58051701 5.1640625 51.8515625 C1.2919318 54.12433487 -2.22364341 54.89199574 -6.7109375 54.5390625 C-10.22765572 52.19458368 -11.45623894 49.49503761 -12.7109375 45.5390625 C-13.00816981 42.59048797 -13.01504481 39.65708865 -13.01171875 36.6953125 C-13.01600388 35.84859985 -13.020289 35.00188721 -13.02470398 34.1295166 C-13.03043154 32.34432874 -13.03095917 30.55911754 -13.02661133 28.77392578 C-13.02344798 26.04809718 -13.0469412 23.3233511 -13.07226562 20.59765625 C-13.0745385 18.85937636 -13.07524217 17.12109357 -13.07421875 15.3828125 C-13.0834285 14.57122681 -13.09263824 13.75964111 -13.10212708 12.92346191 C-13.06452346 8.3093743 -12.71267378 5.27549564 -9.7109375 1.5390625 C-5.95625087 -0.96406192 -4.30494344 -0.60297253 0 0 Z " fill="#F6F6F7" transform="translate(88.7109375,94.4609375)"/>
<path d="M0 0 C2.31 0 4.62 0 7 0 C6.67 1.65 6.34 3.3 6 5 C6.66 5 7.32 5 8 5 C8 3.35 8 1.7 8 0 C9.65 0 11.3 0 13 0 C13.33 0.66 13.66 1.32 14 2 C14.66 1.67 15.32 1.34 16 1 C16 19.15 16 37.3 16 56 C15.67 56 15.34 56 15 56 C14.505 46.1 14.505 46.1 14 36 C11.525 36.495 11.525 36.495 9 37 C9 35.68 9 34.36 9 33 C8.34 33 7.68 33 7 33 C7.33 34.32 7.66 35.64 8 37 C5.02009661 38.24162641 2.1385057 39.25561083 -1 40 C-1.02685938 37.85423363 -1.04633088 35.70837355 -1.0625 33.5625 C-1.07410156 32.36753906 -1.08570313 31.17257813 -1.09765625 29.94140625 C-1 27 -1 27 0 26 C-0.22581905 23.99988837 -0.45578001 21.99958525 -0.74609375 20.0078125 C-1 18 -1 18 -1 15 C-3.64 15.33 -6.28 15.66 -9 16 C-9 13.69 -9 11.38 -9 9 C-8.01 9 -7.02 9 -6 9 C-5.67 9.99 -5.34 10.98 -5 12 C-4.01 12 -3.02 12 -2 12 C-2.33 11.01 -2.66 10.02 -3 9 C-1.68 7.68 -0.36 6.36 1 5 C0.34 5 -0.32 5 -1 5 C-0.67 3.35 -0.34 1.7 0 0 Z M14 33 C15 35 15 35 15 35 Z " fill="#1E1650" transform="translate(209,16)"/>
<path d="M0 0 C2.64 0 5.28 0 8 0 C8 9.57 8 19.14 8 29 C8.99 29 9.98 29 11 29 C11 19.43 11 9.86 11 0 C13.64 0 16.28 0 19 0 C19.12391876 4.75047352 19.21448561 9.49999961 19.2746582 14.25170898 C19.29974959 15.86678461 19.33383126 17.48174726 19.37719727 19.09643555 C19.43809286 21.42264706 19.46626124 23.74735359 19.48828125 26.07421875 C19.51408768 26.79212082 19.5398941 27.51002289 19.56648254 28.24967957 C19.56867876 32.20606389 19.13182653 33.83666029 16.61425781 36.95605469 C13.16408549 39.65355587 11.30733972 39.66828128 7.08984375 39.4296875 C4.04050378 38.8027204 2.73632985 37.5321477 1 35 C-0.1687481 31.4937557 -0.12514267 28.3522134 -0.09765625 24.70703125 C-0.0962413 24.00100266 -0.09482635 23.29497406 -0.09336853 22.56755066 C-0.08777764 20.31582374 -0.07522688 18.06419679 -0.0625 15.8125 C-0.05748382 14.28450665 -0.05292112 12.75651173 -0.04882812 11.22851562 C-0.0378112 7.48563865 -0.02055287 3.74283627 0 0 Z " fill="#F5F4F7" transform="translate(102,101)"/>
<path d="M0 0 C1.90845703 0.04060547 1.90845703 0.04060547 3.85546875 0.08203125 C5.31919922 0.13423828 5.31919922 0.13423828 6.8125 0.1875 C6.4825 1.8375 6.1525 3.4875 5.8125 5.1875 C5.1525 5.1875 4.4925 5.1875 3.8125 5.1875 C3.8125 5.8475 3.8125 6.5075 3.8125 7.1875 C4.8025 7.5175 5.7925 7.8475 6.8125 8.1875 C6.8125 9.1775 6.8125 10.1675 6.8125 11.1875 C7.4725 10.1975 8.1325 9.2075 8.8125 8.1875 C9.875 10 9.875 10 10.8125 12.1875 C10.4825 13.1775 10.1525 14.1675 9.8125 15.1875 C11.1325 15.1875 12.4525 15.1875 13.8125 15.1875 C13.1525 18.1575 12.4925 21.1275 11.8125 24.1875 C15.1125 24.1875 18.4125 24.1875 21.8125 24.1875 C21.8125 29.1875 21.8125 29.1875 20.140625 30.98828125 C17.38566015 32.40736549 15.64163552 32.49654482 12.5625 32.375 C11.22445312 32.33439453 11.22445312 32.33439453 9.859375 32.29296875 C9.18390625 32.25816406 8.5084375 32.22335938 7.8125 32.1875 C8.1425 30.5375 8.4725 28.8875 8.8125 27.1875 C7.4925 26.8575 6.1725 26.5275 4.8125 26.1875 C4.8125 25.5275 4.8125 24.8675 4.8125 24.1875 C3.8225 24.1875 2.8325 24.1875 1.8125 24.1875 C1.8125 24.8475 1.8125 25.5075 1.8125 26.1875 C0.8125 27.1875 -0.1875 28.1875 -1.1875 29.1875 C-1.5175 30.1775 -1.8475 31.1675 -2.1875 32.1875 C-4.8275 32.1875 -7.4675 32.1875 -10.1875 32.1875 C-10.26170211 28.11247206 -10.3161257 24.03770608 -10.35229492 19.9621582 C-10.36737397 18.57602081 -10.3878405 17.18993106 -10.41381836 15.80395508 C-10.45023716 13.81091854 -10.46563018 11.81753277 -10.48046875 9.82421875 C-10.50403442 8.02537231 -10.50403442 8.02537231 -10.52807617 6.19018555 C-10.1875 3.1875 -10.1875 3.1875 -8.87890625 1.29101562 C-6.06161532 -0.54705524 -3.29074912 -0.09057108 0 0 Z M9.8125 22.1875 C9.4825 23.1775 9.1525 24.1675 8.8125 25.1875 C9.4725 25.1875 10.1325 25.1875 10.8125 25.1875 C10.4825 24.1975 10.1525 23.2075 9.8125 22.1875 Z " fill="#1B184E" transform="translate(170.1875,-0.1875)"/>
<path d="M0 0 C4.95 0 9.9 0 15 0 C15 0.99 15 1.98 15 3 C13.02 3.66 11.04 4.32 9 5 C11.35277269 7.72426311 13.62496331 8.8141763 17 10 C17 10.66 17 11.32 17 12 C17.99 12 18.98 12 20 12 C22.40766092 12.52667583 24.65665703 13.21888568 27 14 C27 13.34 27 12.68 27 12 C27.99 12 28.98 12 30 12 C30.495 12.99 30.495 12.99 31 14 C31.78375 13.814375 32.5675 13.62875 33.375 13.4375 C36 13 36 13 38 14 C38.33 13.01 38.66 12.02 39 11 C39.66 12.32 40.32 13.64 41 15 C38.03 15 35.06 15 32 15 C32 24.57 32 34.14 32 44 C31.01 44 30.02 44 29 44 C29 34.43 29 24.86 29 15 C26.36 15 23.72 15 21 15 C21 25.23 21 35.46 21 46 C20.34 46 19.68 46 19 46 C19 47.65 19 49.3 19 51 C18.67 51 18.34 51 18 51 C17.98541748 50.03175293 17.97083496 49.06350586 17.95581055 48.06591797 C17.89758433 44.45373676 17.82035464 40.84216317 17.73754883 37.23046875 C17.70441333 35.67099919 17.6763463 34.11141298 17.65356445 32.55175781 C17.61980719 30.30223148 17.56748496 28.05376313 17.51171875 25.8046875 C17.50532883 25.1138205 17.4989389 24.42295349 17.49235535 23.71115112 C17.35462321 19.11711348 16.47186381 15.88018848 14 12 C9.64010481 9.5321348 6.00261676 8.33298443 1 9 C-2.1359157 10.77984405 -2.84102736 11.52308207 -4 15 C-4.14986411 16.9906444 -4.24828038 18.98535391 -4.31640625 20.98046875 C-4.35830078 22.14384766 -4.40019531 23.30722656 -4.44335938 24.50585938 C-4.48267578 25.72080078 -4.52199219 26.93574219 -4.5625 28.1875 C-4.60568359 29.41404297 -4.64886719 30.64058594 -4.69335938 31.90429688 C-4.7995309 34.93608381 -4.90157952 37.96795315 -5 41 C-8.91514344 36.132278 -8.63191997 32.18374454 -9 26 C-13.29 25.67 -17.58 25.34 -22 25 C-22 21.04 -22 17.08 -22 13 C-19.87439563 13.30836232 -17.74952935 13.62181614 -15.625 13.9375 C-14.44164063 14.11152344 -13.25828125 14.28554687 -12.0390625 14.46484375 C-9 15 -9 15 -7 16 C-7 11.71 -7 7.42 -7 3 C-8.32 2.67 -9.64 2.34 -11 2 C-9.02 2 -7.04 2 -5 2 C-4.67 2.99 -4.34 3.98 -4 5 C-2.35 5 -0.7 5 1 5 C0.34 4.67 -0.32 4.34 -1 4 C-0.67 2.68 -0.34 1.36 0 0 Z " fill="#4A3F8D" transform="translate(81,86)"/>
<path d="M0 0 C1.15328658 3.45985975 1.16009084 6.20733184 1.20532227 9.8581543 C1.21522186 10.55109589 1.22512146 11.24403748 1.23532104 11.95797729 C1.2668896 14.24668978 1.29167503 16.53542301 1.31640625 18.82421875 C1.33697979 20.41177406 1.35797637 21.99932394 1.37937927 23.58686829 C1.43455861 27.76416628 1.48398612 31.94151337 1.53222656 36.11889648 C1.5824718 40.38204312 1.63814209 44.6451185 1.69335938 48.90820312 C1.80089034 57.27207516 1.90234653 65.63600683 2 74 C2.495 73.01 2.495 73.01 3 72 C4.98 72.33 6.96 72.66 9 73 C9 74.65 9 76.3 9 78 C5.3321148 79.96189209 2.12751449 81.39301257 -2 82 C-1.08216876 84.6450037 -1.08216876 84.6450037 1 87 C3.79374292 87.46837899 6.14221036 87.23424505 9 87 C9.33 87.99 9.66 88.98 10 90 C8.4840625 89.9690625 8.4840625 89.9690625 6.9375 89.9375 C3.19443808 89.99691368 -0.3073323 90.42075801 -4 91 C-4.66 91 -5.32 91 -6 91 C-6 86 -6 81 -6 76 C-6.01160156 75.30261719 -6.02320312 74.60523438 -6.03515625 73.88671875 C-6.09422164 69.13617389 -5.67295594 64.71069157 -5 60 C-4.63083843 53.07112128 -5.31426131 46.1590284 -5.87890625 39.2578125 C-6 36 -6 36 -5 33 C-4.505 32.505 -4.505 32.505 -4 32 C-3.7763932 29.0745356 -3.7763932 29.0745356 -5 27 C-5.06073923 25.37871592 -5.06024584 23.75490028 -5.02734375 22.1328125 C-5.01509766 21.16472656 -5.00285156 20.19664063 -4.99023438 19.19921875 C-4.95521088 17.1574788 -4.91617895 15.1158035 -4.87304688 13.07421875 C-4.86208984 12.10355469 -4.85113281 11.13289063 -4.83984375 10.1328125 C-4.82300537 9.24480957 -4.80616699 8.35680664 -4.78881836 7.44189453 C-5.01398113 4.83833614 -5.6826757 3.23441592 -7 1 C-4.53721199 -0.231394 -2.7204945 -0.07159196 0 0 Z " fill="#5D4787" transform="translate(38,77)"/>
<path d="M0 0 C4.05606165 0.46800711 7.46588679 0.87953208 11 3 C10.2575 3.721875 9.515 4.44375 8.75 5.1875 C-1.33099831 15.49761191 -1.48168357 26.34862545 -1.6875 40.125 C-1.72074036 41.66929858 -1.75523601 43.21357067 -1.79101562 44.7578125 C-1.87514192 48.5050139 -1.94230856 52.2522874 -2 56 C-2.66 56 -3.32 56 -4 56 C-3.86980469 56.65226562 -3.73960937 57.30453125 -3.60546875 57.9765625 C-2.52034261 64.85240849 -2.52034261 64.85240849 -3.8359375 68 C-5.0625 69.625 -5.0625 69.625 -8 72 C-11.3125 72.375 -11.3125 72.375 -14 72 C-13.505 71.01 -13.505 71.01 -13 70 C-16.465 70.495 -16.465 70.495 -20 71 C-19.67 69.35 -19.34 67.7 -19 66 C-16.69 66.33 -14.38 66.66 -12 67 C-12.33 59.41 -12.66 51.82 -13 44 C-10.03 44 -7.06 44 -4 44 C-4 40.37 -4 36.74 -4 33 C-6.64 33 -9.28 33 -12 33 C-12 30.36 -12 27.72 -12 25 C-8.04 24.505 -8.04 24.505 -4 24 C-4 20.37 -4 16.74 -4 13 C-4.90363281 13.30035156 -5.80726563 13.60070312 -6.73828125 13.91015625 C-8.50751953 14.48056641 -8.50751953 14.48056641 -10.3125 15.0625 C-11.48425781 15.44535156 -12.65601563 15.82820313 -13.86328125 16.22265625 C-17 17 -17 17 -20 16 C-18.68 15.01 -17.36 14.02 -16 13 C-16.66 12.67 -17.32 12.34 -18 12 C-17.67 11.01 -17.34 10.02 -17 9 C-17 9.66 -17 10.32 -17 11 C-12.60469719 10.51163302 -10.9781 9.17023548 -8 6 C-5.75 4.75 -5.75 4.75 -4 4 C-4.66 5.98 -5.32 7.96 -6 10 C-5.34 10 -4.68 10 -4 10 C-3.34 10.66 -2.68 11.32 -2 12 C-1.34 11.67 -0.68 11.34 0 11 C-0.66 10.67 -1.32 10.34 -2 10 C-1.34 6.7 -0.68 3.4 0 0 Z M-11 67 C-10 69 -10 69 -10 69 Z " fill="#373170" transform="translate(144,80)"/>
<path d="M0 0 C0 3.63 0 7.26 0 11 C-2.64 11.33 -5.28 11.66 -8 12 C-8 14.64 -8 17.28 -8 20 C-5.36 20 -2.72 20 0 20 C0 23.63 0 27.26 0 31 C-2.97 31 -5.94 31 -9 31 C-8.67 31.99 -8.34 32.98 -8 34 C-7.91893314 35.55421729 -7.89243102 37.11167027 -7.90234375 38.66796875 C-7.90556641 39.56064453 -7.90878906 40.45332031 -7.91210938 41.37304688 C-7.92048828 42.30181641 -7.92886719 43.23058594 -7.9375 44.1875 C-7.94201172 45.12787109 -7.94652344 46.06824219 -7.95117188 47.03710938 C-7.96295374 49.35813712 -7.97940442 51.67903644 -8 54 C-13.75 53.125 -13.75 53.125 -16 52 C-16 36.16 -16 20.32 -16 4 C-2 0 -2 0 0 0 Z " fill="#FAF9F8" transform="translate(140,93)"/>
<path d="M0 0 C14.85 0 29.7 0 45 0 C44.67 1.65 44.34 3.3 44 5 C43.34 5 42.68 5 42 5 C42 8.63 42 12.26 42 16 C35.4 16 28.8 16 22 16 C22.33 14.68 22.66 13.36 23 12 C24.98 12 26.96 12 29 12 C29 11.01 29 10.02 29 9 C28.01 9 27.02 9 26 9 C25.67 9.66 25.34 10.32 25 11 C25 10.01 25 9.02 25 8 C24.01 8.495 24.01 8.495 23 9 C23.33 9.66 23.66 10.32 24 11 C21.36 11.33 18.72 11.66 16 12 C15.731875 11.236875 15.46375 10.47375 15.1875 9.6875 C14.05575888 7.12619116 13.08776599 5.80307062 11 4 C10.67 6.64 10.34 9.28 10 12 C7.36 11.67 4.72 11.34 2 11 C1.34 7.37 0.68 3.74 0 0 Z " fill="#2D4599" transform="translate(118,0)"/>
<path d="M0 0 C1.32 0.33 2.64 0.66 4 1 C4.33 2.98 4.66 4.96 5 7 C6.7015625 7.4640625 6.7015625 7.4640625 8.4375 7.9375 C12 9 12 9 13 10 C15.05396726 9.59070014 15.05396726 9.59070014 17 9 C17.12375 9.639375 17.2475 10.27875 17.375 10.9375 C17.58125 11.618125 17.7875 12.29875 18 13 C18.66 13.33 19.32 13.66 20 14 C19.01 14.66 18.02 15.32 17 16 C17 15.34 17 14.68 17 14 C16.34 14 15.68 14 15 14 C15 14.66 15 15.32 15 16 C14.01 16 13.02 16 12 16 C12.00523682 17.31194336 12.01047363 18.62388672 12.01586914 19.97558594 C12.03397031 24.84341754 12.04545078 29.71124616 12.05493164 34.57910156 C12.05996013 36.68587749 12.06678376 38.79264992 12.07543945 40.89941406 C12.08756989 43.92774314 12.09324317 46.95602606 12.09765625 49.984375 C12.10281754 50.92617615 12.10797882 51.86797729 12.11329651 52.83831787 C12.11337204 53.71892883 12.11344757 54.59953979 12.11352539 55.50683594 C12.115746 56.27960876 12.11796661 57.05238159 12.12025452 57.84857178 C11.85010173 62.68177352 10.61248664 64.73710884 7 68 C7.66 68 8.32 68 9 68 C8.6875 69.9375 8.6875 69.9375 8 72 C6.515 72.495 6.515 72.495 5 73 C4.99413376 72.22405487 4.98826752 71.44810974 4.98222351 70.64865112 C4.92422282 63.32166551 4.85210438 55.99501709 4.76428509 48.66833305 C4.7196342 44.90195751 4.6803668 41.13568882 4.65356445 37.36914062 C4.62747823 33.7314476 4.58703919 30.09416689 4.53681374 26.45672989 C4.52018077 25.07178009 4.50864428 23.68675902 4.50238609 22.30172348 C4.49270698 20.35581826 4.46291844 18.410045 4.43237305 16.46435547 C4.42126999 15.35849091 4.41016693 14.25262634 4.39872742 13.11325073 C3.94223876 9.54900212 2.727457 7.12732851 1 4 C0.3125 1.625 0.3125 1.625 0 0 Z " fill="#2F2C73" transform="translate(180,80)"/>
<path d="M0 0 C5.02913725 5.02913725 5.16298526 7.81928592 5.203125 14.51953125 C5.20882507 15.25572189 5.21452515 15.99191254 5.22039795 16.75041199 C5.22983756 18.30795866 5.23637781 19.8655252 5.24023438 21.4230957 C5.24992231 23.79349086 5.28094675 26.16301203 5.3125 28.53320312 C5.31903241 30.04947404 5.32428195 31.56575113 5.328125 33.08203125 C5.3404718 33.78536087 5.3528186 34.48869049 5.36553955 35.21333313 C5.34467124 39.87617517 4.36337822 42.99824687 2 47 C0.68 47 -0.64 47 -2 47 C-2 46.34 -2 45.68 -2 45 C-2.8971875 45.495 -2.8971875 45.495 -3.8125 46 C-6 47 -6 47 -9 47 C-9 42.71 -9 38.42 -9 34 C-8.67 34 -8.34 34 -8 34 C-7.67 25.42 -7.34 16.84 -7 8 C-5.68 8 -4.36 8 -3 8 C-1.7736243 10.45275141 -1.88584686 12.0505781 -1.90234375 14.7890625 C-1.90717773 16.20058594 -1.90717773 16.20058594 -1.91210938 17.640625 C-1.92048828 18.62546875 -1.92886719 19.6103125 -1.9375 20.625 C-1.94201172 21.61757812 -1.94652344 22.61015625 -1.95117188 23.6328125 C-1.96297855 26.0886016 -1.979446 28.54427104 -2 31 C-0.35 31 1.3 31 3 31 C3.33 28.36 3.66 25.72 4 23 C3.34 23 2.68 23 2 23 C2 22.01 2 21.02 2 20 C2.66 20 3.32 20 4 20 C3.34 18.02 2.68 16.04 2 14 C1.34 14 0.68 14 0 14 C0 9.38 0 4.76 0 0 Z " fill="#F8F7FC" transform="translate(94,97)"/>
<path d="M0 0 C1.98 0.66 3.96 1.32 6 2 C6.33 4.97 6.66 7.94 7 11 C8.65 11 10.3 11 12 11 C12.33 18.59 12.66 26.18 13 34 C11.02 34.66 9.04 35.32 7 36 C6.03122943 38.03243548 6.03122943 38.03243548 6 40 C4.125 39.375 4.125 39.375 2 38 C0.0220699 33.39000084 -0.23516492 29.39561562 -0.1953125 24.4140625 C-0.19106766 23.36138687 -0.19106766 23.36138687 -0.18673706 22.28744507 C-0.17562512 20.06644972 -0.15053834 17.84587155 -0.125 15.625 C-0.11495854 14.11068295 -0.10583473 12.59635951 -0.09765625 11.08203125 C-0.07571554 7.38788742 -0.04124875 3.69398449 0 0 Z " fill="#FAFBF9" transform="translate(143,110)"/>
<path d="M0 0 C1.65 0.33 3.3 0.66 5 1 C5 16.51 5 32.02 5 48 C2.525 48.495 2.525 48.495 0 49 C-2.42386345 46.57613655 -2.25210208 45.98938588 -2.25878906 42.67382812 C-2.26509338 41.77950073 -2.27139771 40.88517334 -2.27789307 39.96374512 C-2.2738446 38.99602173 -2.26979614 38.02829834 -2.265625 37.03125 C-2.26753845 36.04000122 -2.2694519 35.04875244 -2.27142334 34.02746582 C-2.27278585 31.92927802 -2.26908482 29.83108181 -2.26074219 27.73291016 C-2.25004371 24.51315454 -2.26063536 21.29395692 -2.2734375 18.07421875 C-2.27211592 16.03906126 -2.26955355 14.00390412 -2.265625 11.96875 C-2.27169769 10.51716492 -2.27169769 10.51716492 -2.27789307 9.03625488 C-2.27158875 8.14192749 -2.26528442 7.2476001 -2.25878906 6.32617188 C-2.25719788 5.53722534 -2.25560669 4.74827881 -2.25396729 3.9354248 C-2 2 -2 2 0 0 Z " fill="#2F2E7D" transform="translate(158,96)"/>
<path d="M0 0 C0.66 0.99 1.32 1.98 2 3 C1.25 5.4375 1.25 5.4375 0 8 C-0.37125 8.763125 -0.7425 9.52625 -1.125 10.3125 C-1.41375 10.869375 -1.7025 11.42625 -2 12 C-0.02463255 11.65213292 -0.02463255 11.65213292 2 11 C2.33 10.34 2.66 9.68 3 9 C3.99 9 4.98 9 6 9 C6 8.34 6 7.68 6 7 C7.98 7 9.96 7 12 7 C12 7.66 12 8.32 12 9 C10.35 9.66 8.7 10.32 7 11 C6.67 25.19 6.34 39.38 6 54 C5.67 54 5.34 54 5 54 C5 47.4 5 40.8 5 34 C2.03 34.495 2.03 34.495 -1 35 C-1 31.7 -1 28.4 -1 25 C-1.804375 24.855625 -2.60875 24.71125 -3.4375 24.5625 C-6 24 -6 24 -7 23 C-7.72705217 15.55069496 -7.46588564 9.19847003 -3 3 C-2.02357526 1.97696787 -1.0290509 0.9700795 0 0 Z " fill="#EAEAEF" transform="translate(150,87)"/>
<path d="M0 0 C1.21236328 0.04060547 1.21236328 0.04060547 2.44921875 0.08203125 C3.06410156 0.11683594 3.67898437 0.15164063 4.3125 0.1875 C4.3125 0.8475 4.3125 1.5075 4.3125 2.1875 C3.6525 2.1875 2.9925 2.1875 2.3125 2.1875 C2.3125 3.5075 2.3125 4.8275 2.3125 6.1875 C1.3225 6.6825 1.3225 6.6825 0.3125 7.1875 C-0.59475434 9.30077425 -0.59475434 9.30077425 -1.3125 11.75 C-1.70308594 12.98943359 -1.70308594 12.98943359 -2.1015625 14.25390625 C-2.29492188 14.89199219 -2.48828125 15.53007812 -2.6875 16.1875 C-1.3675 16.5175 -0.0475 16.8475 1.3125 17.1875 C1.3125 19.1675 1.3125 21.1475 1.3125 23.1875 C1.9725 23.1875 2.6325 23.1875 3.3125 23.1875 C2.61308404 26.33487182 1.55171302 29.21338876 0.3125 32.1875 C-2.3275 32.1875 -4.9675 32.1875 -7.6875 32.1875 C-7.76170211 28.11247206 -7.8161257 24.03770608 -7.85229492 19.9621582 C-7.86737397 18.57602081 -7.8878405 17.18993106 -7.91381836 15.80395508 C-7.95023716 13.81091854 -7.96563018 11.81753277 -7.98046875 9.82421875 C-8.00403442 8.02537231 -8.00403442 8.02537231 -8.02807617 6.19018555 C-7.6875 3.1875 -7.6875 3.1875 -6.31054688 1.29101562 C-4.1142208 -0.20227467 -2.62880957 -0.11429607 0 0 Z " fill="#283076" transform="translate(167.6875,-0.1875)"/>
<path d="M0 0 C3.3 0.33 6.6 0.66 10 1 C10.13541522 4.37635286 10.23431111 7.74723976 10.3125 11.125 C10.35439453 12.07632813 10.39628906 13.02765625 10.43945312 14.0078125 C10.57765351 21.96815451 10.57765351 21.96815451 7.6875 25.65625 C5 28 5 28 1.6875 28.375 C0.800625 28.25125 -0.08625 28.1275 -1 28 C-0.67 27.34 -0.34 26.68 0 26 C-2.31 26.33 -4.62 26.66 -7 27 C-6.67 25.35 -6.34 23.7 -6 22 C-3.69 22.33 -1.38 22.66 1 23 C0.67 15.41 0.34 7.82 0 0 Z M2 23 C3 25 3 25 3 25 Z " fill="#403294" transform="translate(131,124)"/>
<path d="M0 0 C3.96 0 7.92 0 12 0 C11.67 1.65 11.34 3.3 11 5 C10.34 5 9.68 5 9 5 C9 8.63 9 12.26 9 16 C2.4 16 -4.2 16 -11 16 C-10.67 14.68 -10.34 13.36 -10 12 C-8.02 12 -6.04 12 -4 12 C-4 11.01 -4 10.02 -4 9 C-4.99 8.67 -5.98 8.34 -7 8 C-6.67 6.35 -6.34 4.7 -6 3 C-5.01 3 -4.02 3 -3 3 C-2.67 3.66 -2.34 4.32 -2 5 C-1.34 3.35 -0.68 1.7 0 0 Z " fill="#303E93" transform="translate(151,0)"/>
<path d="M0 0 C1.32 0.33 2.64 0.66 4 1 C4 1.99 4 2.98 4 4 C4.99 4.66 5.98 5.32 7 6 C7.29296875 8.12890625 7.29296875 8.12890625 7.1875 10.5625 C7.16042969 11.36816406 7.13335937 12.17382812 7.10546875 13.00390625 C7.07066406 13.66261719 7.03585938 14.32132813 7 15 C7 15.33 7 15.66 7 16 C7 18.66666667 7 21.33333333 7 24 C6.34 24 5.68 24 5 24 C3 22 3 22 2 20 C1.01 19.67 0.02 19.34 -1 19 C-0.979375 18.236875 -0.95875 17.47375 -0.9375 16.6875 C-0.87057159 13.89814214 -0.87057159 13.89814214 -2 11 C-2.66 11 -3.32 11 -4 11 C-4 11.99 -4 12.98 -4 14 C-5.65 14.33 -7.3 14.66 -9 15 C-9 12.69 -9 10.38 -9 8 C-3.25 6 -3.25 6 -1 6 C-0.67 4.02 -0.34 2.04 0 0 Z M-8 22 C-5.69 22.33 -3.38 22.66 -1 23 C0 26 0 26 -1 29 C-3.31 29.33 -5.62 29.66 -8 30 C-8 27.36 -8 24.72 -8 22 Z " fill="#313896" transform="translate(105,2)"/>
<path d="M0 0 C0.66 0 1.32 0 2 0 C2 0.99 2 1.98 2 3 C2.99 3 3.98 3 5 3 C6.5 4.3125 6.5 4.3125 8 6 C8.5775 6.474375 9.155 6.94875 9.75 7.4375 C10.36875 8.2109375 10.36875 8.2109375 11 9 C10.6875 11.1875 10.6875 11.1875 10 13 C9.34 13 8.68 13 8 13 C7.94600264 14.45792884 7.90720823 15.91642712 7.875 17.375 C7.84019531 18.59316406 7.84019531 18.59316406 7.8046875 19.8359375 C7.78629949 22.21342243 7.78629949 22.21342243 10 24 C9.360625 24.2475 8.72125 24.495 8.0625 24.75 C5.81258459 25.81562433 5.81258459 25.81562433 5.25 28.125 C5.1675 28.74375 5.085 29.3625 5 30 C3.35 30.33 1.7 30.66 0 31 C0 20.77 0 10.54 0 0 Z " fill="#574AA0" transform="translate(0,18)"/>
<path d="M0 0 C0 3.96 0 7.92 0 12 C-0.9075 12.144375 -1.815 12.28875 -2.75 12.4375 C-6.31051379 13.05374277 -9.57487497 13.85829166 -13 15 C-12.67 15.66 -12.34 16.32 -12 17 C-14.64458379 18.32229189 -16.67761301 18.09677194 -19.625 18.0625 C-20.62789062 18.05347656 -21.63078125 18.04445312 -22.6640625 18.03515625 C-23.43492187 18.02355469 -24.20578125 18.01195312 -25 18 C-25.33 16.68 -25.66 15.36 -26 14 C-25.34 14 -24.68 14 -24 14 C-24 12.35 -24 10.7 -24 9 C-22.80761719 8.81824219 -21.61523438 8.63648438 -20.38671875 8.44921875 C-18.82020918 8.19595074 -17.25380838 7.94200928 -15.6875 7.6875 C-14.50897461 7.51057617 -14.50897461 7.51057617 -13.30664062 7.33007812 C-12.1706543 7.14155273 -12.1706543 7.14155273 -11.01171875 6.94921875 C-10.31522217 6.83924561 -9.61872559 6.72927246 -8.90112305 6.6159668 C-6.61671089 5.87581374 -5.55631024 4.79475996 -4 3 C-4.66 2.34 -5.32 1.68 -6 1 C-4 0 -4 0 0 0 Z " fill="#392E92" transform="translate(184,154)"/>
<path d="M0 0 C10 0 10 0 12 1 C12 1.66 12 2.32 12 3 C10.02 3.66 8.04 4.32 6 5 C5.80495542 7.10348074 5.61921504 9.20782585 5.4375 11.3125 C5.33308594 12.48425781 5.22867188 13.65601563 5.12109375 14.86328125 C4.81422566 18.03032575 4.81422566 18.03032575 6 21 C5.67 21.66 5.34 22.32 5 23 C5 24.32 5 25.64 5 27 C5 31 5 31 4 33 C2.35 33.66 0.7 34.32 -1 35 C-0.67 23.45 -0.34 11.9 0 0 Z " fill="#58458C" transform="translate(59,124)"/>
<path d="M0 0 C2.10544013 0.28232721 4.20933589 0.5761898 6.3125 0.875 C7.48425781 1.03742188 8.65601562 1.19984375 9.86328125 1.3671875 C13 2 13 2 16 4 C16.41137202 7.03866799 16.13193156 9.92159703 16 13 C10.72 12.67 5.44 12.34 0 12 C0 8.04 0 4.08 0 0 Z " fill="#54498D" transform="translate(59,99)"/>
<path d="M0 0 C3 1 3 1 4 3 C3.99126963 5.82864061 3.86859992 8.64306061 3.7421875 11.46875 C3.82726562 12.3040625 3.91234375 13.139375 4 14 C4.99 14.66 5.98 15.32 7 16 C7.1875 18.625 7.1875 18.625 7 21 C6.34 21 5.68 21 5 21 C5 21.99 5 22.98 5 24 C5.66 24 6.32 24 7 24 C7 28.62 7 33.24 7 38 C6.67 38 6.34 38 6 38 C6 36.02 6 34.04 6 32 C4.515 32.495 4.515 32.495 3 33 C2.34 32.67 1.68 32.34 1 32 C0.97494385 31.37432129 0.9498877 30.74864258 0.92407227 30.10400391 C0.80824727 27.27745381 0.68546015 24.45124831 0.5625 21.625 C0.52318359 20.64015625 0.48386719 19.6553125 0.44335938 18.640625 C0.38051758 17.22910156 0.38051758 17.22910156 0.31640625 15.7890625 C0.27974854 14.91975098 0.24309082 14.05043945 0.20532227 13.15478516 C0.12598456 10.9516738 0.12598456 10.9516738 -1 9 C-1.99 8.67 -2.98 8.34 -4 8 C-4 7.34 -4 6.68 -4 6 C-2.68 5.34 -1.36 4.68 0 4 C0 2.68 0 1.36 0 0 Z " fill="#FBFBF9" transform="translate(91,96)"/>
<path d="M0 0 C0.99 0.33 1.98 0.66 3 1 C2.835 1.639375 2.67 2.27875 2.5 2.9375 C1.96073333 4.80826821 1.96073333 4.80826821 2 6 C3.32 5.67 4.64 5.34 6 5 C6 11.6 6 18.2 6 25 C0 24 0 24 -2 23 C-2 16.4 -2 9.8 -2 3 C-1.34 3 -0.68 3 0 3 C0 2.01 0 1.02 0 0 Z " fill="#E1DFEA" transform="translate(126,122)"/>
<path d="M0 0 C5.875 1.875 5.875 1.875 7 3 C9.05396726 2.59070014 9.05396726 2.59070014 11 2 C11.12375 2.639375 11.2475 3.27875 11.375 3.9375 C11.58125 4.618125 11.7875 5.29875 12 6 C12.66 6.33 13.32 6.66 14 7 C13.01 7.66 12.02 8.32 11 9 C11 8.34 11 7.68 11 7 C10.34 7 9.68 7 9 7 C9 7.66 9 8.32 9 9 C8.01 9 7.02 9 6 9 C6 14.61 6 20.22 6 26 C5.67 26 5.34 26 5 26 C4.67 30.95 4.34 35.9 4 41 C3.67 41 3.34 41 3 41 C2.91697632 39.61663452 2.91697632 39.61663452 2.83227539 38.20532227 C2.6234694 34.74427065 2.41262024 31.28335551 2.20043945 27.82250977 C2.10946627 26.33199872 2.01927935 24.84143945 1.92993164 23.35083008 C1.46148754 15.54430069 0.9715722 7.7638247 0 0 Z " fill="#302C89" transform="translate(186,87)"/>
<path d="M0 0 C1.65 0 3.3 0 5 0 C4.67 1.65 4.34 3.3 4 5 C3.34 5 2.68 5 2 5 C2 5.66 2 6.32 2 7 C2.99 7.33 3.98 7.66 5 8 C4.98839844 8.58007812 4.97679687 9.16015625 4.96484375 9.7578125 C4.91237826 14.2998246 5.08248937 18.52713569 6 23 C5.01 23 4.02 23 3 23 C3 21.35 3 19.7 3 18 C-0.3 17.34 -3.6 16.68 -7 16 C-6.53199289 11.94393835 -6.12046792 8.53411321 -4 5 C-3.34 5.33 -2.68 5.66 -2 6 C-2 4.68 -2 3.36 -2 2 C-1.34 2 -0.68 2 0 2 C0 1.34 0 0.68 0 0 Z " fill="#26225A" transform="translate(172,0)"/>
<path d="M0 0 C1.02104551 0.97850195 2.0206121 1.97980427 3 3 C3 3.33 3 3.66 3 4 C0.03 4 -2.94 4 -6 4 C-6 13.57 -6 23.14 -6 33 C-6.99 33 -7.98 33 -9 33 C-9 23.43 -9 13.86 -9 4 C-11.64 4 -14.28 4 -17 4 C-17 9.28 -17 14.56 -17 20 C-17.33 20 -17.66 20 -18 20 C-18.1968121 17.95920995 -18.38202831 15.91729993 -18.5625 13.875 C-18.66691406 12.73804687 -18.77132812 11.60109375 -18.87890625 10.4296875 C-18.99608016 7.11102007 -18.6655072 4.2437314 -18 1 C-15.61435923 1.57584432 -13.33317216 2.22227595 -11 3 C-11 2.34 -11 1.68 -11 1 C-10.01 1 -9.02 1 -8 1 C-7.67 1.66 -7.34 2.32 -7 3 C-6.21625 2.814375 -5.4325 2.62875 -4.625 2.4375 C-2 2 -2 2 0 3 C0 2.01 0 1.02 0 0 Z " fill="#3C3270" transform="translate(119,97)"/>
<path d="M0 0 C2.97 0.495 2.97 0.495 6 1 C6 2.65 6 4.3 6 6 C2.3321148 7.96189209 -0.87248551 9.39301257 -5 10 C-4.08216876 12.6450037 -4.08216876 12.6450037 -2 15 C0.79374292 15.46837899 3.14221036 15.23424505 6 15 C6.33 15.99 6.66 16.98 7 18 C5.4840625 17.9690625 5.4840625 17.9690625 3.9375 17.9375 C0.19443808 17.99691368 -3.3073323 18.42075801 -7 19 C-7.66 19 -8.32 19 -9 19 C-9 14.33333333 -9 9.66666667 -9 5 C-6.69 5 -4.38 5 -2 5 C-1.34 3.35 -0.68 1.7 0 0 Z " fill="#6C4A9F" transform="translate(41,149)"/>
<path d="M0 0 C6.27495722 0.22818026 6.27495722 0.22818026 8.9375 3.0625 C9.288125 3.701875 9.63875 4.34125 10 5 C8.68 5.33 7.36 5.66 6 6 C6 6.66 6 7.32 6 8 C5.01 8 4.02 8 3 8 C3.66 8.33 4.32 8.66 5 9 C4.67 9.99 4.34 10.98 4 12 C3.34 12 2.68 12 2 12 C2 11.34 2 10.68 2 10 C-0.31 9.34 -2.62 8.68 -5 8 C-2.25 2.25 -2.25 2.25 0 0 Z M10 3 C10.99 3 11.98 3 13 3 C13 3.66 13 4.32 13 5 C13.66 5 14.32 5 15 5 C15 6.32 15 7.64 15 9 C14.01 9 13.02 9 12 9 C14.475 9.99 14.475 9.99 17 11 C16.34 12.65 15.68 14.3 15 16 C14.34 15.01 13.68 14.02 13 13 C12.34 13 11.68 13 11 13 C10.34 11.02 9.68 9.04 9 7 C9.66 7 10.32 7 11 7 C10.67 5.68 10.34 4.36 10 3 Z " fill="#564CA2" transform="translate(11,8)"/>
<path d="M0 0 C0.99 0.33 1.98 0.66 3 1 C3 11.56 3 22.12 3 33 C1.68 33 0.36 33 -1 33 C-1.02465392 28.46102295 -1.04283789 23.92208457 -1.05493164 19.38305664 C-1.0599714 17.83780234 -1.0668032 16.29255284 -1.07543945 14.74731445 C-1.08752076 12.53074971 -1.09323173 10.31424782 -1.09765625 8.09765625 C-1.10281754 7.4028566 -1.10797882 6.70805695 -1.11329651 5.99220276 C-1.11349277 4.3277067 -1.06189129 2.66334501 -1 1 C-0.67 0.67 -0.34 0.34 0 0 Z " fill="#4C4088" transform="translate(88,104)"/>
<path d="M0 0 C1.32 0 2.64 0 4 0 C4 0.66 4 1.32 4 2 C4.99 2 5.98 2 7 2 C8.29914639 6.61918716 7.77764428 10.33413434 7 15 C6 16 6 16 3.5625 16.25 C2.716875 16.1675 1.87125 16.085 1 16 C-1.29013653 12.5647952 -1.17842973 11.014669 -1 7 C-2.32 7 -3.64 7 -5 7 C-4.67 5.68 -4.34 4.36 -4 3 C-2.35 3 -0.7 3 1 3 C0.67 2.01 0.34 1.02 0 0 Z " fill="#4751A6" transform="translate(57,0)"/>
<path d="M0 0 C0.66 0 1.32 0 2 0 C2 10.89 2 21.78 2 33 C2.99 33.33 3.98 33.66 5 34 C6.34090759 34.65129797 7.67592331 35.31513275 9 36 C9 36.66 9 37.32 9 38 C8.01 38 7.02 38 6 38 C5.67 38.99 5.34 39.98 5 41 C3.68 41 2.36 41 1 41 C1.0407666 41.92337158 1.0815332 42.84674316 1.12353516 43.7980957 C1.2698241 47.22509768 1.40666311 50.65220663 1.53710938 54.07983398 C1.59549775 55.56306078 1.65764593 57.04614455 1.72363281 58.52905273 C1.81784811 60.66103065 1.89851575 62.79315781 1.9765625 64.92578125 C2.02893066 66.20880127 2.08129883 67.49182129 2.13525391 68.8137207 C2 72 2 72 0 75 C0 50.25 0 25.5 0 0 Z " fill="#E4D6F6" transform="translate(39,79)"/>
<path d="M0 0 C1.21236328 0.04060547 1.21236328 0.04060547 2.44921875 0.08203125 C3.06410156 0.11683594 3.67898437 0.15164063 4.3125 0.1875 C4.3125 0.8475 4.3125 1.5075 4.3125 2.1875 C3.6525 2.1875 2.9925 2.1875 2.3125 2.1875 C2.3125 3.5075 2.3125 4.8275 2.3125 6.1875 C1.3225 6.6825 1.3225 6.6825 0.3125 7.1875 C-0.39376239 9.17386298 -1.05643571 11.17598259 -1.6875 13.1875 C-2.32565344 14.53471283 -2.98075371 15.87497118 -3.6875 17.1875 C-5.0075 16.5275 -6.3275 15.8675 -7.6875 15.1875 C-7.76857583 13.25068839 -7.82672475 11.3129066 -7.875 9.375 C-7.90980469 8.29605469 -7.94460937 7.21710937 -7.98046875 6.10546875 C-7.6875 3.1875 -7.6875 3.1875 -6.46875 1.3125 C-4.16650596 -0.14154886 -2.70198432 -0.11747758 0 0 Z " fill="#28296B" transform="translate(167.6875,-0.1875)"/>
<path d="M0 0 C0.66 0 1.32 0 2 0 C2 10.89 2 21.78 2 33 C-0.97 33.99 -3.94 34.98 -7 36 C-8.25 28.375 -8.25 28.375 -6 25 C-5.34 25 -4.68 25 -4 25 C-3.67 25.99 -3.34 26.98 -3 28 C-2.01 27.67 -1.02 27.34 0 27 C0 24.03 0 21.06 0 18 C-0.66 18.33 -1.32 18.66 -2 19 C-2 17.35 -2 15.7 -2 14 C-1.34 14 -0.68 14 0 14 C0.33 10.37 0.66 6.74 1 3 C0.34 3 -0.32 3 -1 3 C-0.67 2.01 -0.34 1.02 0 0 Z " fill="#EFE7F1" transform="translate(57,124)"/>
<path d="M0 0 C0.66 0 1.32 0 2 0 C3.80619523 4.46236469 4.11658501 7.31034294 3 12 C4.32 12.66 5.64 13.32 7 14 C6.34 14 5.68 14 5 14 C5.33 15.32 5.66 16.64 6 18 C3.02009661 19.24162641 0.1385057 20.25561083 -3 21 C-3.02709444 18.91673869 -3.04643873 16.83337559 -3.0625 14.75 C-3.07410156 13.58984375 -3.08570313 12.4296875 -3.09765625 11.234375 C-2.96509819 6.8440521 -2.06124936 3.84766547 0 0 Z " fill="#271F5E" transform="translate(211,35)"/>
<path d="M0 0 C0.33 0.66 0.66 1.32 1 2 C1.99 2.33 2.98 2.66 4 3 C5.1875 6.0625 5.1875 6.0625 6 9 C8.41619823 9.25030977 8.41619823 9.25030977 11 9 C11.66 8.01 12.32 7.02 13 6 C15.97 6.495 15.97 6.495 19 7 C19 7.99 19 8.98 19 10 C17.02 10 15.04 10 13 10 C13 10.99 13 11.98 13 13 C11.68 12.67 10.36 12.34 9 12 C8.34 14.31 7.68 16.62 7 19 C6.34 19 5.68 19 5 19 C5 17.35 5 15.7 5 14 C5.66 13.67 6.32 13.34 7 13 C6.34 12.34 5.68 11.68 5 11 C2.09324817 10.97831363 2.09324817 10.97831363 -1.125 11.375 C-2.22070312 11.48585938 -3.31640625 11.59671875 -4.4453125 11.7109375 C-5.28835937 11.80632813 -6.13140625 11.90171875 -7 12 C-7 10.68 -7 9.36 -7 8 C-4.03 8.495 -4.03 8.495 -1 9 C-0.67 6.03 -0.34 3.06 0 0 Z " fill="#6274BF" transform="translate(128,2)"/>
<path d="M0 0 C0.99 0.99 1.98 1.98 3 3 C2.34 3 1.68 3 1 3 C1.66 3.66 2.32 4.32 3 5 C3 5.99 3 6.98 3 8 C3.66 8 4.32 8 5 8 C5.33 13.28 5.66 18.56 6 24 C4.35 24.33 2.7 24.66 1 25 C-1.24434537 21.63348195 -1.20138902 20.78403012 -0.9765625 16.89453125 C-0.925 15.91162109 -0.8734375 14.92871094 -0.8203125 13.91601562 C-0.75585938 12.89185547 -0.69140625 11.86769531 -0.625 10.8125 C-0.56828125 9.77673828 -0.5115625 8.74097656 -0.453125 7.67382812 C-0.31163334 5.11518729 -0.16022134 2.55752516 0 0 Z " fill="#36307C" transform="translate(157,120)"/>
<path d="M0 0 C0.66 0.33 1.32 0.66 2 1 C2.625 4.0625 2.625 4.0625 3 7 C2.030625 7.144375 1.06125 7.28875 0.0625 7.4375 C-2.86486773 7.67562341 -2.86486773 7.67562341 -4 9 C-4.23363881 10.84891946 -4.41303635 12.70488031 -4.5625 14.5625 C-4.64628906 15.57441406 -4.73007813 16.58632812 -4.81640625 17.62890625 C-4.87699219 18.41136719 -4.93757812 19.19382812 -5 20 C-4.34 20 -3.68 20 -3 20 C-3 20.66 -3 21.32 -3 22 C-3.66 22 -4.32 22 -5 22 C-4.96447021 22.57032959 -4.92894043 23.14065918 -4.89233398 23.72827148 C-4.73529923 26.29771664 -4.58629537 28.86756512 -4.4375 31.4375 C-4.38142578 32.33533203 -4.32535156 33.23316406 -4.26757812 34.15820312 C-4.21923828 35.01220703 -4.17089844 35.86621094 -4.12109375 36.74609375 C-4.0739624 37.53685303 -4.02683105 38.3276123 -3.97827148 39.14233398 C-4 41 -4 41 -5 42 C-4.67 42.99 -4.34 43.98 -4 45 C-4.66 45 -5.32 45 -6 45 C-6 44.34 -6 43.68 -6 43 C-7.32 43 -8.64 43 -10 43 C-10.495 41.515 -10.495 41.515 -11 40 C-9.02 39.505 -9.02 39.505 -7 39 C-6.67 26.46 -6.34 13.92 -6 1 C-4.35 1 -2.7 1 -1 1 C-0.67 0.67 -0.34 0.34 0 0 Z " fill="#DBDDF7" transform="translate(169,105)"/>
<path d="M0 0 C20.125 0 20.125 0 24 1 C24 1.66 24 2.32 24 3 C24.99 3.33 25.98 3.66 27 4 C26.01 4.495 26.01 4.495 25 5 C25.66 5.66 26.32 6.32 27 7 C23.02007188 8.08201355 20.59297528 7.86432509 16.69921875 6.56640625 C15.72275391 6.24736328 14.74628906 5.92832031 13.74023438 5.59960938 C12.73283203 5.25736328 11.72542969 4.91511719 10.6875 4.5625 C9.66076172 4.22412109 8.63402344 3.88574219 7.57617188 3.53710938 C5.04707478 2.70191917 2.52213301 1.85594472 0 1 C0 0.67 0 0.34 0 0 Z " fill="#51468A" transform="translate(44,80)"/>
<path d="M0 0 C3.30315372 0.56950926 5.01519679 1.2598689 7 4 C7.38948306 6.65205262 7.60508934 9.08716102 7.6875 11.75 C7.72093506 12.49628662 7.75437012 13.24257324 7.78881836 14.01147461 C8.08663613 21.33933891 8.09605676 28.66766696 8 36 C7.34 36 6.68 36 6 36 C6 37.65 6 39.3 6 41 C5.67 41 5.34 41 5 41 C4.98541748 40.03175293 4.97083496 39.06350586 4.95581055 38.06591797 C4.89758433 34.45373676 4.82035464 30.84216317 4.73754883 27.23046875 C4.70441333 25.67099919 4.6763463 24.11141298 4.65356445 22.55175781 C4.61980719 20.30223148 4.56748496 18.05376313 4.51171875 15.8046875 C4.50532883 15.1138205 4.4989389 14.42295349 4.49235535 13.71115112 C4.35412305 9.10043074 3.30467186 5.97113822 1 2 C0.67 1.34 0.34 0.68 0 0 Z " fill="#4A4273" transform="translate(94,96)"/>
<path d="M0 0 C2.625 -0.1875 2.625 -0.1875 5 0 C6.03038433 3.9414002 5.87693282 6.83615152 5.0625 10.8125 C4.86785156 11.78832031 4.67320313 12.76414062 4.47265625 13.76953125 C4.31667969 14.50558594 4.16070313 15.24164063 4 16 C2.02 16 0.04 16 -2 16 C-2.12529002 10.48723898 -2.12529002 10.48723898 -1.4375 7.8125 C-0.77806294 5.7824796 -0.77806294 5.7824796 -2 3 C-1.34 2.01 -0.68 1.02 0 0 Z " fill="#5B4398" transform="translate(26,64)"/>
<path d="M0 0 C3.3 0 6.6 0 10 0 C9.34 1.98 8.68 3.96 8 6 C8.66 6 9.32 6 10 6 C10 6.66 10 7.32 10 8 C8.68 7.67 7.36 7.34 6 7 C5.01 8.485 5.01 8.485 4 10 C3.01 9.67 2.02 9.34 1 9 C0.34 10.32 -0.32 11.64 -1 13 C-2.60455021 8.77749945 -3.33807057 6.84517642 -1.625 2.5625 C-1.08875 1.716875 -0.5525 0.87125 0 0 Z " fill="#6A5EAC" transform="translate(28,32)"/>
<path d="M0 0 C-0.33 0.99 -0.66 1.98 -1 3 C-1.08315752 5.06498892 -1.10735878 7.1325789 -1.09765625 9.19921875 C-1.09443359 10.40771484 -1.09121094 11.61621094 -1.08789062 12.86132812 C-1.07951172 14.12396484 -1.07113281 15.38660156 -1.0625 16.6875 C-1.05798828 17.96173828 -1.05347656 19.23597656 -1.04882812 20.54882812 C-1.03702873 23.69926564 -1.02056597 26.84960949 -1 30 C-1.99 29.67 -2.98 29.34 -4 29 C-5.24328312 26.51343375 -5.08365938 24.90919819 -5.02734375 22.1328125 C-5.01509766 21.16472656 -5.00285156 20.19664063 -4.99023438 19.19921875 C-4.95521088 17.1574788 -4.91617895 15.1158035 -4.87304688 13.07421875 C-4.86208984 12.10355469 -4.85113281 11.13289063 -4.83984375 10.1328125 C-4.82300537 9.24480957 -4.80616699 8.35680664 -4.78881836 7.44189453 C-5.01398113 4.83833614 -5.6826757 3.23441592 -7 1 C-4.53721199 -0.231394 -2.7204945 -0.07159196 0 0 Z " fill="#5E479B" transform="translate(38,77)"/>
<path d="M0 0 C0.66 0.66 1.32 1.32 2 2 C1.34 2 0.68 2 0 2 C-0.33 2.66 -0.66 3.32 -1 4 C-1.66 3.67 -2.32 3.34 -3 3 C-3.33 4.98 -3.66 6.96 -4 9 C-2.35 8.67 -0.7 8.34 1 8 C2.5625 9.75 2.5625 9.75 4 12 C3.6875 14.25 3.6875 14.25 3 16 C-1.98012761 14.49087042 -5.24259942 11.44338151 -9 8 C-7.875 5.125 -7.875 5.125 -6 2 C-2.8125 0.625 -2.8125 0.625 0 0 Z " fill="#ECEEED" transform="translate(156,143)"/>
<path d="M0 0 C0.99 0.33 1.98 0.66 3 1 C3.02887512 4.64581687 3.04675585 8.29160463 3.0625 11.9375 C3.07087891 12.97841797 3.07925781 14.01933594 3.08789062 15.09179688 C3.09111328 16.08115234 3.09433594 17.07050781 3.09765625 18.08984375 C3.10289307 19.00628662 3.10812988 19.92272949 3.11352539 20.86694336 C3 23 3 23 2 24 C2.33 24 2.66 24 3 24 C3 25.65 3 27.3 3 29 C3.99 29 4.98 29 6 29 C6 29.66 6 30.32 6 31 C3.69 30.67 1.38 30.34 -1 30 C-1.16168875 21.07118796 -1.16168875 21.07118796 -0.5 16.6875 C0.25295271 11.1344738 0.07572499 5.59523561 0 0 Z " fill="#67489D" transform="translate(33,124)"/>
<path d="M0 0 C0 0.66 0 1.32 0 2 C0.66 2 1.32 2 2 2 C1.125 6.875 1.125 6.875 0 8 C-2.69654854 8.07319621 -5.36691458 8.09242537 -8.0625 8.0625 C-9.20041992 8.05573242 -9.20041992 8.05573242 -10.36132812 8.04882812 C-12.24091871 8.0370068 -14.12046899 8.01907078 -16 8 C-15.67 6.68 -15.34 5.36 -15 4 C-13.00045254 3.95745644 -10.99958364 3.95919217 -9 4 C-8.67 4.33 -8.34 4.66 -8 5 C-7.67 4.01 -7.34 3.02 -7 2 C-4.56723614 0.81480735 -2.71982714 0 0 0 Z " fill="#2E419B" transform="translate(156,8)"/>
<path d="M0 0 C4.93218609 4.93218609 4.93218609 4.93218609 5.11352539 10.46166992 C5.11336745 11.88461269 5.10774109 13.30756171 5.09765625 14.73046875 C5.0962413 15.48088943 5.09482635 16.23131012 5.09336853 17.00447083 C5.0877756 19.3988546 5.07522444 21.79314453 5.0625 24.1875 C5.05748408 25.81184761 5.05292134 27.43619668 5.04882812 29.06054688 C5.03780848 33.04040069 5.02054873 37.02018444 5 41 C4.67 41 4.34 41 4 41 C4 35.06 4 29.12 4 23 C3.34 23 2.68 23 2 23 C2 22.01 2 21.02 2 20 C2.66 20 3.32 20 4 20 C3.34 18.02 2.68 16.04 2 14 C1.34 14 0.68 14 0 14 C0 9.38 0 4.76 0 0 Z " fill="#DBD6EE" transform="translate(94,97)"/>
<path d="M0 0 C1.4540625 0.0309375 1.4540625 0.0309375 2.9375 0.0625 C2.9375 1.3825 2.9375 2.7025 2.9375 4.0625 C1.6175 4.3925 0.2975 4.7225 -1.0625 5.0625 C-0.41796875 5.29710937 0.2265625 5.53171875 0.890625 5.7734375 C2.9375 7.0625 2.9375 7.0625 3.546875 9.2265625 C3.59328125 10.03867187 3.6396875 10.85078125 3.6875 11.6875 C3.74421875 12.50476562 3.8009375 13.32203125 3.859375 14.1640625 C3.88515625 14.79054688 3.9109375 15.41703125 3.9375 16.0625 C0.69017068 14.43883534 0.23594864 11.30862161 -1.0625 8.0625 C-0.4025 10.7025 0.2575 13.3425 0.9375 16.0625 C-0.0525 16.0625 -1.0425 16.0625 -2.0625 16.0625 C-2.0625 15.4025 -2.0625 14.7425 -2.0625 14.0625 C-2.7225 14.0625 -3.3825 14.0625 -4.0625 14.0625 C-4.0625 12.0825 -4.0625 10.1025 -4.0625 8.0625 C-3.4025 8.0625 -2.7425 8.0625 -2.0625 8.0625 C-2.0625 7.4025 -2.0625 6.7425 -2.0625 6.0625 C-2.7225 6.0625 -3.3825 6.0625 -4.0625 6.0625 C-4.105221 4.39638095 -4.10313832 2.72867115 -4.0625 1.0625 C-3.0625 0.0625 -3.0625 0.0625 0 0 Z " fill="#3D4DA6" transform="translate(144.0625,31.9375)"/>
<path d="M0 0 C8.13636364 -0.31293706 8.13636364 -0.31293706 11 2 C11.75 4.625 11.75 4.625 12 7 C8.28861183 9.94351476 5.560258 11.1403321 0.8125 11.0625 C-1.0746875 11.0315625 -1.0746875 11.0315625 -3 11 C-2.01 10.67 -1.02 10.34 0 10 C0 9.34 0 8.68 0 8 C0.66 7.67 1.32 7.34 2 7 C2.33 6.01 2.66 5.02 3 4 C3.66 3.34 4.32 2.68 5 2 C3.35 1.67 1.7 1.34 0 1 C0 0.67 0 0.34 0 0 Z " fill="#DCDAE8" transform="translate(169,151)"/>
<path d="M0 0 C2.625 0.375 2.625 0.375 5 1 C5 3.31 5 5.62 5 8 C4.01 7.01 3.02 6.02 2 5 C1.01 5.33 0.02 5.66 -1 6 C-1 19.2 -1 32.4 -1 46 C-1.33 46 -1.66 46 -2 46 C-2.05059881 39.77038023 -2.08569062 33.5408132 -2.10986328 27.31103516 C-2.11993751 25.1905723 -2.13359733 23.07012339 -2.15087891 20.94970703 C-2.17506489 17.90654057 -2.18646869 14.86355734 -2.1953125 11.8203125 C-2.20563507 10.86818878 -2.21595764 9.91606506 -2.22659302 8.93508911 C-2.22674408 8.05432709 -2.22689514 7.17356506 -2.22705078 6.26611328 C-2.231492 5.48889923 -2.23593323 4.71168518 -2.24050903 3.91091919 C-2 2 -2 2 0 0 Z " fill="#2B2B65" transform="translate(158,96)"/>
<path d="M0 0 C2.64 0 5.28 0 8 0 C8 0.66 8 1.32 8 2 C6.68 2.33 5.36 2.66 4 3 C4.99 3.99 5.98 4.98 7 6 C6.34 7.32 5.68 8.64 5 10 C3.68 9.67 2.36 9.34 1 9 C1 15.6 1 22.2 1 29 C0.67 29 0.34 29 0 29 C0 19.43 0 9.86 0 0 Z " fill="#CFCCDB" transform="translate(113,101)"/>
<path d="M0 0 C4.455 0.99 4.455 0.99 9 2 C9 6.29 9 10.58 9 15 C6.36 14.67 3.72 14.34 1 14 C1.99 13.01 2.98 12.02 4 11 C2.68 10.01 1.36 9.02 0 8 C0.33 7.34 0.66 6.68 1 6 C2.98 6.495 2.98 6.495 5 7 C4.67 5.35 4.34 3.7 4 2 C2.68 2 1.36 2 0 2 C0 1.34 0 0.68 0 0 Z " fill="#F6F4FB" transform="translate(65,87)"/>
<path d="M0 0 C0.33 0 0.66 0 1 0 C2.80367709 4.59845318 3.1868407 8.22792753 2.9765625 13.1484375 C2.95153656 13.80582916 2.92651062 14.46322083 2.90072632 15.14053345 C2.81922001 17.21926917 2.72237079 19.29695318 2.625 21.375 C2.56668908 22.7929272 2.50938745 24.21089629 2.453125 25.62890625 C2.31374797 29.08649886 2.16061336 32.54332125 2 36 C-0.80822697 32.54073079 -1.34795797 30.74282314 -1.1875 26.25 C-1.16042969 25.26515625 -1.13335937 24.2803125 -1.10546875 23.265625 C-1.07066406 22.51796875 -1.03585938 21.7703125 -1 21 C-0.34 21 0.32 21 1 21 C1 18.03 1 15.06 1 12 C-0.65 12 -2.3 12 -4 12 C-2.68 11.67 -1.36 11.34 0 11 C0 7.37 0 3.74 0 0 Z " fill="#453E6A" transform="translate(74,91)"/>
<path d="M0 0 C0.99 0 1.98 0 3 0 C3.625 1.8125 3.625 1.8125 4 4 C3.01 5.485 3.01 5.485 2 7 C3.32 7.33 4.64 7.66 6 8 C5.42415568 10.38564077 4.77772405 12.66682784 4 15 C2.68 15 1.36 15 0 15 C-0.33 15.66 -0.66 16.32 -1 17 C-1.02684679 14.35409986 -1.04676357 11.70846904 -1.0625 9.0625 C-1.07087891 8.30775391 -1.07925781 7.55300781 -1.08789062 6.77539062 C-1.09652441 4.85005687 -1.05224333 2.92464419 -1 1 C-0.67 0.67 -0.34 0.34 0 0 Z " fill="#8B64A9" transform="translate(17,136)"/>
<path d="M0 0 C2.125 0.375 2.125 0.375 4 1 C4 2.32 4 3.64 4 5 C4.66 5 5.32 5 6 5 C5.67 5.99 5.34 6.98 5 8 C4.34 8 3.68 8 3 8 C3.66 8.33 4.32 8.66 5 9 C5 9.66 5 10.32 5 11 C6.32 11 7.64 11 9 11 C9 12.65 9 14.3 9 16 C7.35 15.67 5.7 15.34 4 15 C4.66 14.34 5.32 13.68 6 13 C6.66 13.33 7.32 13.66 8 14 C8 13.34 8 12.68 8 12 C5.03 11.67 2.06 11.34 -1 11 C-1.9765625 4.1640625 -1.9765625 4.1640625 -2 2 C-1.34 1.34 -0.68 0.68 0 0 Z " fill="#55479D" transform="translate(42,56)"/>
<path d="M0 0 C0 1.98 0 3.96 0 6 C-0.99 6.495 -0.99 6.495 -2 7 C-2.66 6.67 -3.32 6.34 -4 6 C-4.33 7.65 -4.66 9.3 -5 11 C-9.62 11 -14.24 11 -19 11 C-19 10.01 -19 9.02 -19 8 C-18.16855469 7.89042969 -17.33710938 7.78085938 -16.48046875 7.66796875 C-15.39378906 7.50941406 -14.30710938 7.35085937 -13.1875 7.1875 C-11.56908203 6.96126953 -11.56908203 6.96126953 -9.91796875 6.73046875 C-6.93559009 5.98387597 -5.85776521 5.37924316 -4 3 C-4.66 2.34 -5.32 1.68 -6 1 C-4 0 -4 0 0 0 Z " fill="#352E7F" transform="translate(184,154)"/>
<path d="M0 0 C4.62 0 9.24 0 14 0 C13.67 1.65 13.34 3.3 13 5 C12.01 5 11.02 5 10 5 C10 5.66 10 6.32 10 7 C8.02 7 6.04 7 4 7 C3.67 5.35 3.34 3.7 3 2 C2.01 2 1.02 2 0 2 C0 1.34 0 0.68 0 0 Z " fill="#3E4EA1" transform="translate(61,0)"/>
<path d="M0 0 C2.475 0.495 2.475 0.495 5 1 C4.34 3.64 3.68 6.28 3 9 C3.99 9.33 4.98 9.66 6 10 C5.01 10 4.02 10 3 10 C3.3403125 10.86625 3.3403125 10.86625 3.6875 11.75 C4 14 4 14 2.5625 16.25 C2.046875 16.8275 1.53125 17.405 1 18 C1.99 18.33 2.98 18.66 4 19 C4 19.66 4 20.32 4 21 C2.68 21.33 1.36 21.66 0 22 C0 14.74 0 7.48 0 0 Z " fill="#F8F7F8" transform="translate(125,98)"/>
<path d="M0 0 C0.99 0 1.98 0 3 0 C3 2.64 3 5.28 3 8 C0.03 8 -2.94 8 -6 8 C-6 7.01 -6 6.02 -6 5 C-8.31 5.66 -10.62 6.32 -13 7 C-12.67 5.68 -12.34 4.36 -12 3 C-8.25 1.875 -8.25 1.875 -6 3 C-6 2.34 -6 1.68 -6 1 C-5.34 1 -4.68 1 -4 1 C-4 2.32 -4 3.64 -4 5 C-2.68 5 -1.36 5 0 5 C0 3.35 0 1.7 0 0 Z " fill="#302F7A" transform="translate(205,56)"/>
<path d="M0 0 C0.66 0 1.32 0 2 0 C1.3125 3.375 1.3125 3.375 0 7 C-2.5 8.375 -2.5 8.375 -5 9 C-5.99 9.495 -5.99 9.495 -7 10 C-7 10.66 -7 11.32 -7 12 C-9.31 12.33 -11.62 12.66 -14 13 C-12.68 11.68 -11.36 10.36 -10 9 C-10.66 8.67 -11.32 8.34 -12 8 C-11.67 7.01 -11.34 6.02 -11 5 C-11 5.66 -11 6.32 -11 7 C-6.65728748 6.51747639 -4.8601779 5.2546852 -2 2 C-1.34 1.34 -0.68 0.68 0 0 Z " fill="#362D84" transform="translate(138,84)"/>
<path d="M0 0 C0.33 0 0.66 0 1 0 C1.33 2.64 1.66 5.28 2 8 C2.33 8 2.66 8 3 8 C3 11.3 3 14.6 3 18 C2.67 18 2.34 18 2 18 C1.67 22.95 1.34 27.9 1 33 C0.67 33 0.34 33 0 33 C-0.19920413 29.18801888 -0.38220438 25.37541851 -0.5625 21.5625 C-0.61857422 20.49322266 -0.67464844 19.42394531 -0.73242188 18.32226562 C-1.0193303 12.06766201 -0.88028523 6.20112042 0 0 Z " fill="#2C2780" transform="translate(189,95)"/>
<path d="M0 0 C1.09570312 0.00902344 2.19140625 0.01804688 3.3203125 0.02734375 C4.16335937 0.03894531 5.00640625 0.05054688 5.875 0.0625 C5.875 1.0525 5.875 2.0425 5.875 3.0625 C3.875 5.0625 3.875 5.0625 1.2734375 5.2578125 C0.27570313 5.23460937 -0.72203125 5.21140625 -1.75 5.1875 C-3.25433594 5.16042969 -3.25433594 5.16042969 -4.7890625 5.1328125 C-5.55992187 5.10960937 -6.33078125 5.08640625 -7.125 5.0625 C-7.455 3.7425 -7.785 2.4225 -8.125 1.0625 C-5.36047967 -0.31976016 -3.0788637 -0.03275387 0 0 Z " fill="#40348B" transform="translate(166.125,166.9375)"/>
<path d="M0 0 C1.65 0 3.3 0 5 0 C4.67 0.99 4.34 1.98 4 3 C3.67 2.34 3.34 1.68 3 1 C2.01 0.67 1.02 0.34 0 0 Z M-7 3 C-4.69 3.33 -2.38 3.66 0 4 C1 7 1 7 0 10 C-2.31 10.33 -4.62 10.66 -7 11 C-7 8.36 -7 5.72 -7 3 Z " fill="#2B3489" transform="translate(104,21)"/>
<path d="M0 0 C1.97265625 1.14453125 1.97265625 1.14453125 4.0625 2.8125 C4.75472656 3.35519531 5.44695312 3.89789063 6.16015625 4.45703125 C8 6 8 6 10 8 C7.36 8.33 4.72 8.66 2 9 C1.67 8.34 1.34 7.68 1 7 C-1.02463255 6.34786708 -1.02463255 6.34786708 -3 6 C-3 4.35 -3 2.7 -3 1 C-2.01 0.67 -1.02 0.34 0 0 Z " fill="#3C3488" transform="translate(147,151)"/>
<path d="M0 0 C0.33 0.66 0.66 1.32 1 2 C2.65 2 4.3 2 6 2 C6 1.34 6 0.68 6 0 C6.66 0 7.32 0 8 0 C8 1.65 8 3.3 8 5 C3.05 5.33 -1.9 5.66 -7 6 C-7.33 4.68 -7.66 3.36 -8 2 C-5.03 2.495 -5.03 2.495 -2 3 C-2 2.34 -2 1.68 -2 1 C-1.34 0.67 -0.68 0.34 0 0 Z " fill="#35317C" transform="translate(168,74)"/>
<path d="M0 0 C-0.33 1.65 -0.66 3.3 -1 5 C-1.66 5 -2.32 5 -3 5 C-3 5.66 -3 6.32 -3 7 C-2.01 7.33 -1.02 7.66 0 8 C-2.70879335 9.35439668 -5.00933268 9.06501451 -8 9 C-7.34 8.67 -6.68 8.34 -6 8 C-6 7.34 -6 6.68 -6 6 C-6.66 5.67 -7.32 5.34 -8 5 C-7.67 3.35 -7.34 1.7 -7 0 C-2.25 -1.125 -2.25 -1.125 0 0 Z " fill="#3D3590" transform="translate(176,174)"/>
<path d="M0 0 C-1 3 -1 3 -2.84765625 3.94921875 C-3.57855469 4.19285156 -4.30945313 4.43648438 -5.0625 4.6875 C-6.16271484 5.06455078 -6.16271484 5.06455078 -7.28515625 5.44921875 C-7.85105469 5.63097656 -8.41695313 5.81273438 -9 6 C-9.33 5.67 -9.66 5.34 -10 5 C-10.33 13.25 -10.66 21.5 -11 30 C-11.33 30 -11.66 30 -12 30 C-12 21.09 -12 12.18 -12 3 C-2 0 -2 0 0 0 Z " fill="#D1CCE3" transform="translate(136,94)"/>
<path d="M0 0 C3 4 3 4 3 6 C2.34 6 1.68 6 1 6 C1 11.61 1 17.22 1 23 C-1.97 23.66 -4.94 24.32 -8 25 C-7.67 23.35 -7.34 21.7 -7 20 C-4.69 20.33 -2.38 20.66 0 21 C0 14.07 0 7.14 0 0 Z " fill="#42397B" transform="translate(132,126)"/>
<path d="M0 0 C2.31646133 3.474692 2.31022276 5.19907829 2.5 9.3125 C2.71424696 13.92416572 3.40050332 17.66647994 5 22 C5.34976758 23.32911682 5.69096017 24.66082739 6 26 C5.34 26.33 4.68 26.66 4 27 C3.49166409 25.75336669 2.99368855 24.50250613 2.5 23.25 C2.2215625 22.55390625 1.943125 21.8578125 1.65625 21.140625 C1 19 1 19 1 15 C0.34 15 -0.32 15 -1 15 C-1.33 14.01 -1.66 13.02 -2 12 C-1.34 12 -0.68 12 0 12 C0 8.04 0 4.08 0 0 Z " fill="#4C4280" transform="translate(74,124)"/>
<path d="M0 0 C2.97 0 5.94 0 9 0 C8.67 1.65 8.34 3.3 8 5 C7.34 5 6.68 5 6 5 C5.67 5.99 5.34 6.98 5 8 C2.69 7.01 0.38 6.02 -2 5 C-2 4.34 -2 3.68 -2 3 C-1.34 3 -0.68 3 0 3 C0 2.01 0 1.02 0 0 Z " fill="#2D2F7D" transform="translate(154,0)"/>
<path d="M0 0 C3.63 0 7.26 0 11 0 C10.67 1.32 10.34 2.64 10 4 C7.69 4 5.38 4 3 4 C2.67 5.98 2.34 7.96 2 10 C-0.97 9.505 -0.97 9.505 -4 9 C-2.68 8.67 -1.36 8.34 0 8 C0 5.36 0 2.72 0 0 Z " fill="#2D4AA4" transform="translate(126,0)"/>
<path d="M0 0 C2.97 0.495 2.97 0.495 6 1 C6 1.99 6 2.98 6 4 C4.02 4 2.04 4 0 4 C0 4.99 0 5.98 0 7 C-1.32 6.67 -2.64 6.34 -4 6 C-4.66 8.31 -5.32 10.62 -6 13 C-6.66 13 -7.32 13 -8 13 C-8 11.35 -8 9.7 -8 8 C-7.34 7.67 -6.68 7.34 -6 7 C-6.66 6.01 -7.32 5.02 -8 4 C-6.865625 3.71125 -5.73125 3.4225 -4.5625 3.125 C-3.386875 2.75375 -2.21125 2.3825 -1 2 C-0.67 1.34 -0.34 0.68 0 0 Z " fill="#3B5BB0" transform="translate(141,8)"/>
<path d="M0 0 C0.33 0 0.66 0 1 0 C1 9.57 1 19.14 1 29 C0.67 29 0.34 29 0 29 C0 24.71 0 20.42 0 16 C-0.66 16 -1.32 16 -2 16 C-2.66 15.34 -3.32 14.68 -4 14 C-3.75 11.4375 -3.75 11.4375 -3 9 C-2.34 8.67 -1.68 8.34 -1 8 C-0.53476937 6.10466658 -0.53476937 6.10466658 -0.375 3.9375 C-0.25125 2.638125 -0.1275 1.33875 0 0 Z " fill="#2B2B6D" transform="translate(162,112)"/>
<path d="M0 0 C4.95 0.99 4.95 0.99 10 2 C7 4 7 4 3 4 C2.67 5.98 2.34 7.96 2 10 C4.31 10 6.62 10 9 10 C5.53785351 12.05164237 4.40610765 12 0 12 C0 8.04 0 4.08 0 0 Z " fill="#564E7B" transform="translate(59,99)"/>
<path d="M0 0 C1.98 0 3.96 0 6 0 C6.33 0.99 6.66 1.98 7 3 C10.3 3.33 13.6 3.66 17 4 C17 4.66 17 5.32 17 6 C15.906875 6.28875 14.81375 6.5775 13.6875 6.875 C9.95986155 7.81893204 9.95986155 7.81893204 7 10 C4.23776722 7.23776722 4.42143709 4.79293383 4 1 C2.68 0.67 1.36 0.34 0 0 Z " fill="#554B8A" transform="translate(70,88)"/>
<path d="M0 0 C1.32 0 2.64 0 4 0 C3.67 3.3 3.34 6.6 3 10 C1.02 10 -0.96 10 -3 10 C-2.67 8.35 -2.34 6.7 -2 5 C-1.34 5 -0.68 5 0 5 C0 3.35 0 1.7 0 0 Z " fill="#7860B2" transform="translate(27,70)"/>
<path d="M0 0 C0.66 0.66 1.32 1.32 2 2 C1.01 2.33 0.02 2.66 -1 3 C-1.73323796 5.01508358 -1.73323796 5.01508358 -2 7 C-2.33 6.525625 -2.66 6.05125 -3 5.5625 C-6.09813267 3.14208385 -9.12026792 3.31801083 -13 3 C-8.57262312 -0.63677386 -5.59506009 -1.61962266 0 0 Z " fill="#2E3C90" transform="translate(134,13)"/>
<path d="M0 0 C3.86648272 1.04097612 7.49461443 2.03698408 11 4 C9 6 9 6 6.8359375 6.1953125 C5.61777344 6.16050781 5.61777344 6.16050781 4.375 6.125 C3.55773437 6.10695313 2.74046875 6.08890625 1.8984375 6.0703125 C1.27195313 6.04710938 0.64546875 6.02390625 0 6 C-0.38218767 4.34385343 -0.71395102 2.67542976 -1 1 C-0.67 0.67 -0.34 0.34 0 0 Z " fill="#52439F" transform="translate(62,102)"/>
<path d="M0 0 C1.32 0 2.64 0 4 0 C4.1875 2.3125 4.1875 2.3125 4 5 C2.5 6.625 2.5 6.625 1 8 C1 8.99 1 9.98 1 11 C0.34 11 -0.32 11 -1 11 C-1 9.68 -1 8.36 -1 7 C-1.99 7 -2.98 7 -4 7 C-4 5.35 -4 3.7 -4 2 C-3.34 2 -2.68 2 -2 2 C-2 2.66 -2 3.32 -2 4 C-1.34 4 -0.68 4 0 4 C0 2.68 0 1.36 0 0 Z " fill="#38328F" transform="translate(172,64)"/>
<path d="M0 0 C0.66 0.66 1.32 1.32 2 2 C4.06874034 2.6425235 4.06874034 2.6425235 6 3 C5.67 4.65 5.34 6.3 5 8 C2.03 8 -0.94 8 -4 8 C-4.33 7.01 -4.66 6.02 -5 5 C-3.68 5 -2.36 5 -1 5 C-0.67 3.35 -0.34 1.7 0 0 Z " fill="#6E5FB1" transform="translate(114,200)"/>
<path d="M0 0 C0.33 0.99 0.66 1.98 1 3 C3.01508358 3.73323796 3.01508358 3.73323796 5 4 C1.31265242 6.45823172 -1.69699971 7.01242616 -6 8 C-6 6.35 -6 4.7 -6 3 C-4.02 2.01 -2.04 1.02 0 0 Z " fill="#F2E6F0" transform="translate(45,155)"/>
<path d="M0 0 C0.33 0 0.66 0 1 0 C1 6.93 1 13.86 1 21 C1.66 21 2.32 21 3 21 C3 21.99 3 22.98 3 24 C2.34 24 1.68 24 1 24 C1.2475 24.7425 1.495 25.485 1.75 26.25 C1.8325 27.1575 1.915 28.065 2 29 C0.0625 31.3125 0.0625 31.3125 -2 33 C-2.66 32.67 -3.32 32.34 -4 32 C-3.67 31.34 -3.34 30.68 -3 30 C-2.34 30 -1.68 30 -1 30 C-0.67 20.1 -0.34 10.2 0 0 Z " fill="#DFDBF1" transform="translate(91,107)"/>
<path d="M0 0 C1.65 0 3.3 0 5 0 C4.01 0.66 3.02 1.32 2 2 C2 2.99 2 3.98 2 5 C2.99 5.33 3.98 5.66 5 6 C4.67 7.32 4.34 8.64 4 10 C3.01 9.67 2.02 9.34 1 9 C0.34 10.32 -0.32 11.64 -1 13 C-2.60455021 8.77749945 -3.33807057 6.84517642 -1.625 2.5625 C-1.08875 1.716875 -0.5525 0.87125 0 0 Z " fill="#5F52A1" transform="translate(28,32)"/>
<path d="M0 0 C4.05606165 0.46800711 7.46588679 0.87953208 11 3 C10.34 3.66 9.68 4.32 9 5 C6.375 4.625 6.375 4.625 4 4 C3.67 5.65 3.34 7.3 3 9 C1.35 9.33 -0.3 9.66 -2 10 C-1.34 6.7 -0.68 3.4 0 0 Z " fill="#2C2A7B" transform="translate(144,80)"/>
<path d="M0 0 C0.33 0 0.66 0 1 0 C1 1.98 1 3.96 1 6 C1.556875 5.67 2.11375 5.34 2.6875 5 C5.30284522 3.8690399 7.1806646 3.84337026 10 4 C9.67 5.32 9.34 6.64 9 8 C1.5577342 8.36601307 1.5577342 8.36601307 -1 6.6875 C-2 5 -2 5 -2 2 C-1.34 2 -0.68 2 0 2 C0 1.34 0 0.68 0 0 Z " fill="#614680" transform="translate(38,157)"/>
<path d="M0 0 C2.97 0.495 2.97 0.495 6 1 C6 2.65 6 4.3 6 6 C3.69 6.33 1.38 6.66 -1 7 C-0.67 4.69 -0.34 2.38 0 0 Z " fill="#978BA4" transform="translate(41,149)"/>
<path d="M0 0 C0.33 0 0.66 0 1 0 C1 3.63 1 7.26 1 11 C-1.97 11 -4.94 11 -8 11 C-7.34 10.34 -6.68 9.68 -6 9 C-6 7.68 -6 6.36 -6 5 C-5.34 5 -4.68 5 -4 5 C-3.67 4.01 -3.34 3.02 -3 2 C-2.34 2 -1.68 2 -1 2 C-1.52268466 4.76276177 -2.10869587 7.3260876 -3 10 C-2.01 10 -1.02 10 0 10 C0 6.7 0 3.4 0 0 Z " fill="#CFD0E2" transform="translate(139,113)"/>
<path d="M0 0 C0.99 0.33 1.98 0.66 3 1 C3 2.32 3 3.64 3 5 C2.34 5 1.68 5 1 5 C0.67 11.6 0.34 18.2 0 25 C-0.33 25 -0.66 25 -1 25 C-1.02886984 21.02084841 -1.04675406 17.04172347 -1.0625 13.0625 C-1.07087891 11.92619141 -1.07925781 10.78988281 -1.08789062 9.61914062 C-1.09111328 8.53955078 -1.09433594 7.45996094 -1.09765625 6.34765625 C-1.10289307 5.34742432 -1.10812988 4.34719238 -1.11352539 3.31665039 C-1 1 -1 1 0 0 Z " fill="#4B446F" transform="translate(88,104)"/>
<path d="M0 0 C0.66 0.33 1.32 0.66 2 1 C2.625 4.0625 2.625 4.0625 3 7 C0.03 7 -2.94 7 -6 7 C-6 5.02 -6 3.04 -6 1 C-4.7934375 1.0309375 -4.7934375 1.0309375 -3.5625 1.0625 C-1.06645115 1.29633621 -1.06645115 1.29633621 0 0 Z " fill="#B2B1BD" transform="translate(169,105)"/>
<path d="M0 0 C0.99 0.99 1.98 1.98 3 3 C2.34 3 1.68 3 1 3 C1.66 3.66 2.32 4.32 3 5 C3.31884766 6.97119141 3.31884766 6.97119141 3.4140625 9.3515625 C3.45273438 10.20234375 3.49140625 11.053125 3.53125 11.9296875 C3.57765625 13.26386719 3.57765625 13.26386719 3.625 14.625 C3.66367188 15.5221875 3.70234375 16.419375 3.7421875 17.34375 C3.83659357 19.5622927 3.92216748 21.78082403 4 24 C3.01 23.67 2.02 23.34 1 23 C1.33 18.05 1.66 13.1 2 8 C1.34 8 0.68 8 0 8 C0 5.36 0 2.72 0 0 Z " fill="#39358F" transform="translate(157,120)"/>
<path d="M0 0 C2.7839183 1.39195915 2.97898997 3.15575779 4 6 C3.01 6.99 2.02 7.98 1 9 C1.33 9.66 1.66 10.32 2 11 C0.68 11 -0.64 11 -2 11 C-2.66 9.35 -3.32 7.7 -4 6 C-3.01 6 -2.02 6 -1 6 C-1.33 5.34 -1.66 4.68 -2 4 C-1.0625 1.875 -1.0625 1.875 0 0 Z " fill="#EFF0EB" transform="translate(172,105)"/>
<path d="M0 0 C2.96175123 0.61277612 4.38058783 1.25372522 7 3 C7.40843923 5.71203652 7.13336867 8.2437142 7 11 C5.68 10.67 4.36 10.34 3 10 C3.66 8.35 4.32 6.7 5 5 C4.34 5 3.68 5 3 5 C3 4.34 3 3.68 3 3 C1.02 3.99 1.02 3.99 -1 5 C-0.67 3.35 -0.34 1.7 0 0 Z " fill="#2E358D" transform="translate(153,5)"/>
<path d="M0 0 C7.42857143 -0.28571429 7.42857143 -0.28571429 11 2 C10.42655063 4.86724686 10.1385485 5.8614515 8 8 C7.01 8 6.02 8 5 8 C4.34 6.68 3.68 5.36 3 4 C3.66 3.34 4.32 2.68 5 2 C3.35 1.67 1.7 1.34 0 1 C0 0.67 0 0.34 0 0 Z " fill="#F4F3F4" transform="translate(169,151)"/>
<path d="M0 0 C2.50357861 0.8345262 4.66785852 1.79371992 7 3 C7 3.66 7 4.32 7 5 C6.01 5 5.02 5 4 5 C3.67 5.99 3.34 6.98 3 8 C1.68 8 0.36 8 -1 8 C-1.125 2.25 -1.125 2.25 0 0 Z " fill="#E5E1E0" transform="translate(41,112)"/>
<path d="M0 0 C3.28003681 0.56552359 4.97321527 1.32832922 7 4 C7.29296875 6.69921875 7.29296875 6.69921875 7.1875 9.6875 C7.16042969 10.68136719 7.13335937 11.67523438 7.10546875 12.69921875 C7.07066406 13.45847656 7.03585938 14.21773437 7 15 C6.34 15 5.68 15 5 15 C4.89042969 14.33613281 4.78085938 13.67226562 4.66796875 12.98828125 C3.78863977 8.09120522 3.00548286 4.09838572 0 0 Z " fill="#443A79" transform="translate(94,96)"/>
<path d="M0 0 C-2.21934164 3.32901247 -3.34683329 3.75023244 -7 5 C-6.67 6.32 -6.34 7.64 -6 9 C-6.99 9 -7.98 9 -9 9 C-9.66 7.35 -10.32 5.7 -11 4 C-7.26280719 0.48264206 -5.13496308 -0.47767098 0 0 Z " fill="#F2F3F4" transform="translate(88,94)"/>
<path d="M0 0 C0.33 0 0.66 0 1 0 C1.33 1.98 1.66 3.96 2 6 C2.33 6 2.66 6 3 6 C3.33 9.63 3.66 13.26 4 17 C3.01 16.67 2.02 16.34 1 16 C-0.50156874 12.99686252 -0.09281204 10.20932478 -0.0625 6.875 C-0.05347656 5.59367187 -0.04445312 4.31234375 -0.03515625 2.9921875 C-0.02355469 2.00476563 -0.01195312 1.01734375 0 0 Z " fill="#664EA2" transform="translate(33,90)"/>
<path d="M0 0 C1.65 0 3.3 0 5 0 C4.67 1.65 4.34 3.3 4 5 C3.34 5 2.68 5 2 5 C1.67 5.66 1.34 6.32 1 7 C1 6.34 1 5.68 1 5 C0.34 5 -0.32 5 -1 5 C-1 5.99 -1 6.98 -1 8 C-2.32 7.67 -3.64 7.34 -5 7 C-4.67 6.34 -4.34 5.68 -4 5 C-3.34 5.33 -2.68 5.66 -2 6 C-2 4.68 -2 3.36 -2 2 C-1.34 2 -0.68 2 0 2 C0 1.34 0 0.68 0 0 Z " fill="#1E1F53" transform="translate(172,0)"/>
<path d="M0 0 C0 1.98 0 3.96 0 6 C-2.31 6.33 -4.62 6.66 -7 7 C-7.33 6.34 -7.66 5.68 -8 5 C-7.34 4.34 -6.68 3.68 -6 3 C-5.34 3.33 -4.68 3.66 -4 4 C-4 3.34 -4 2.68 -4 2 C-4.66 1.67 -5.32 1.34 -6 1 C-4 0 -4 0 0 0 Z " fill="#403B87" transform="translate(142,106)"/>
<path d="M0 0 C0.66 0.99 1.32 1.98 2 3 C0.98819642 6.77126791 0.32378142 7.78414572 -3 10 C-3.99 10 -4.98 10 -6 10 C-4.79157144 5.56909529 -3.48331435 3.01887244 0 0 Z " fill="#E9EDF2" transform="translate(150,87)"/>
<path d="M0 0 C1.65 0.33 3.3 0.66 5 1 C5.93065133 3.60582371 6.14917407 4.64198224 5.0625 7.25 C4.711875 7.8275 4.36125 8.405 4 9 C2.35 9 0.7 9 -1 9 C-0.01 6.69 0.98 4.38 2 2 C1.34 2 0.68 2 0 2 C0 1.34 0 0.68 0 0 Z " fill="#5A4BA3" transform="translate(122,216)"/>
<path d="M0 0 C0.33 0 0.66 0 1 0 C1 2.64 1 5.28 1 8 C1.99 8.33 2.98 8.66 4 9 C2.68 9.33 1.36 9.66 0 10 C0.99 10.66 1.98 11.32 3 12 C1.35 11.67 -0.3 11.34 -2 11 C-2.33 8.36 -2.66 5.72 -3 3 C-2.01 3 -1.02 3 0 3 C0 2.01 0 1.02 0 0 Z " fill="#D5D5DE" transform="translate(131,105)"/>
<path d="M0 0 C0.99 0 1.98 0 3 0 C3 0.66 3 1.32 3 2 C3.99 2.33 4.98 2.66 6 3 C2.25474201 6.74525799 -1.98270909 6.68909949 -7 7 C-6.34 6.67 -5.68 6.34 -5 6 C-5 5.34 -5 4.68 -5 4 C-3.35 3.67 -1.7 3.34 0 3 C0 2.01 0 1.02 0 0 Z " fill="#E2E1EE" transform="translate(89,142)"/>
<path d="M0 0 C0.66 0 1.32 0 2 0 C2 6.93 2 13.86 2 21 C1.34 20.34 0.68 19.68 0 19 C0.0234375 16.6171875 0.0234375 16.6171875 0.375 13.875 C0.48585938 12.96492187 0.59671875 12.05484375 0.7109375 11.1171875 C0.80632812 10.41851562 0.90171875 9.71984375 1 9 C0.34 9 -0.32 9 -1 9 C-0.67 6.03 -0.34 3.06 0 0 Z " fill="#3C336E" transform="translate(122,125)"/>
<path d="M0 0 C2.97 0.495 2.97 0.495 6 1 C6 4 6 4 4 7 C4 6.34 4 5.68 4 5 C2.68 5.33 1.36 5.66 0 6 C-1 3 -1 3 0 0 Z " fill="#17144C" transform="translate(169,16)"/>
<path d="M0 0 C1.62490954 -0.02698189 3.24994633 -0.04638757 4.875 -0.0625 C5.77992187 -0.07410156 6.68484375 -0.08570312 7.6171875 -0.09765625 C10 0 10 0 12 1 C12 1.66 12 2.32 12 3 C9.69 2.67 7.38 2.34 5 2 C5 2.66 5 3.32 5 4 C4.34 4 3.68 4 3 4 C3 5.65 3 7.3 3 9 C2.67 9 2.34 9 2 9 C2.04125 7.88625 2.0825 6.7725 2.125 5.625 C2.41121859 1.95633975 2.41121859 1.95633975 0 0 Z " fill="#5E548B" transform="translate(59,124)"/>
<path d="M0 0 C4 4 4 4 4.3125 6.5 C3.73333333 11.13333333 3.73333333 11.13333333 3 13 C2.01 13.33 1.02 13.66 0 14 C0 9.38 0 4.76 0 0 Z " fill="#E8E7EA" transform="translate(94,97)"/>
<path d="M0 0 C5.74375821 3.29960578 5.74375821 3.29960578 6.9375 6.5625 C7 9 7 9 6 12 C5.01 12 4.02 12 3 12 C3.0928125 10.6078125 3.0928125 10.6078125 3.1875 9.1875 C3.3314563 6.02209709 3.3314563 6.02209709 1.5 4.3125 C1.005 3.879375 0.51 3.44625 0 3 C0 2.01 0 1.02 0 0 Z " fill="#F2F2E6" transform="translate(176,84)"/>
<path d="M0 0 C0.66 0 1.32 0 2 0 C2 1.32 2 2.64 2 4 C1.01 4 0.02 4 -1 4 C1.475 4.99 1.475 4.99 4 6 C3.34 7.65 2.68 9.3 2 11 C1.34 10.01 0.68 9.02 0 8 C-0.66 8 -1.32 8 -2 8 C-2.33 6.35 -2.66 4.7 -3 3 C-2.34 3 -1.68 3 -1 3 C-0.67 2.01 -0.34 1.02 0 0 Z " fill="#5D59AD" transform="translate(24,13)"/>
<path d="M0 0 C2.375 0.3125 2.375 0.3125 5 1 C5.66 1.99 6.32 2.98 7 4 C6.67 4.99 6.34 5.98 6 7 C4.02 6.01 2.04 5.02 0 4 C0 2.68 0 1.36 0 0 Z " fill="#8478C1" transform="translate(33,49)"/>
<path d="M0 0 C2.31 0 4.62 0 7 0 C6.34 1.65 5.68 3.3 5 5 C4.34 5 3.68 5 3 5 C2.67 5.66 2.34 6.32 2 7 C2 6.34 2 5.68 2 5 C1.01 5 0.02 5 -1 5 C-0.67 3.35 -0.34 1.7 0 0 Z " fill="#1A1347" transform="translate(209,16)"/>
<path d="M0 0 C1.65 0.33 3.3 0.66 5 1 C5.33 3.31 5.66 5.62 6 8 C5.34 8 4.68 8 4 8 C3.67 8.66 3.34 9.32 3 10 C3 8.02 3 6.04 3 4 C1.68 4 0.36 4 -1 4 C-0.67 2.68 -0.34 1.36 0 0 Z " fill="#6971BC" transform="translate(53,3)"/>
<path d="M0 0 C0.66 0 1.32 0 2 0 C2.66 1.65 3.32 3.3 4 5 C2.68 5.33 1.36 5.66 0 6 C0.33 6.99 0.66 7.98 1 9 C0.34 9.66 -0.32 10.32 -1 11 C-2.25 3.375 -2.25 3.375 0 0 Z " fill="#BCB9BA" transform="translate(51,149)"/>
<path d="M0 0 C5.75 -0.125 5.75 -0.125 8 1 C8 1.66 8 2.32 8 3 C7.34 3 6.68 3 6 3 C6 3.66 6 4.32 6 5 C3.03 4.505 3.03 4.505 0 4 C0 2.68 0 1.36 0 0 Z " fill="#3E369C" transform="translate(160,72)"/>
<path d="M0 0 C1.65 0 3.3 0 5 0 C5 0.66 5 1.32 5 2 C5.763125 1.79375 6.52625 1.5875 7.3125 1.375 C10 1 10 1 13 3 C6.565 3.495 6.565 3.495 0 4 C0 2.68 0 1.36 0 0 Z " fill="#4231A2" transform="translate(160,163)"/>
<path d="M0 0 C0.99 0.33 1.98 0.66 3 1 C2.01 4.3 1.02 7.6 0 11 C-0.99 11 -1.98 11 -3 11 C-2.32829194 7.1936543 -1.27253436 3.64793184 0 0 Z " fill="#53478E" transform="translate(100,132)"/>
<path d="M0 0 C1.65 0 3.3 0 5 0 C4.34 3.63 3.68 7.26 3 11 C2.34 11 1.68 11 1 11 C0.67 7.37 0.34 3.74 0 0 Z " fill="#3B3085" transform="translate(136,125)"/>
<path d="M0 0 C2.50357192 1.25178596 4.06433379 2.99981158 6 5 C4.8125 6.5625 4.8125 6.5625 3 8 C0.3125 7.6875 0.3125 7.6875 -2 7 C-1.67 6.01 -1.34 5.02 -1 4 C-1 4.66 -1 5.32 -1 6 C-0.01 6 0.98 6 2 6 C1.01 5.01 0.02 4.02 -1 3 C-0.67 2.01 -0.34 1.02 0 0 Z " fill="#2F2D80" transform="translate(210,96)"/>
<path d="M0 0 C2.97 0.495 2.97 0.495 6 1 C6 1.66 6 2.32 6 3 C7.32 3 8.64 3 10 3 C10 4.65 10 6.3 10 8 C8.35 7.67 6.7 7.34 5 7 C5.66 6.34 6.32 5.68 7 5 C7.66 5.33 8.32 5.66 9 6 C9 5.34 9 4.68 9 4 C6.03 3.67 3.06 3.34 0 3 C0 2.01 0 1.02 0 0 Z " fill="#6150A8" transform="translate(41,64)"/>
<path d="M0 0 C2 0 2 0 4.125 1.75 C6 4 6 4 6 8 C5.01 8.33 4.02 8.66 3 9 C2.01 8.34 1.02 7.68 0 7 C0 4.66666667 0 2.33333333 0 0 Z " fill="#4E419F" transform="translate(74,47)"/>
<path d="M0 0 C0.66 0 1.32 0 2 0 C2 3.3 2 6.6 2 10 C1.01 8.68 0.02 7.36 -1 6 C-1.99 6 -2.98 6 -4 6 C-2.7260411 3.96166576 -1.38938077 1.96147874 0 0 Z " fill="#483D82" transform="translate(121,134)"/>
<path d="M0 0 C0.66 0 1.32 0 2 0 C2.33 4.95 2.66 9.9 3 15 C-0.15353333 10.7952889 -0.36246719 10.14908143 -0.1875 5.25 C-0.16042969 4.26515625 -0.13335937 3.2803125 -0.10546875 2.265625 C-0.07066406 1.51796875 -0.03585938 0.7703125 0 0 Z " fill="#4C4570" transform="translate(73,112)"/>
<path d="M0 0 C4.455 0.99 4.455 0.99 9 2 C9 6.29 9 10.58 9 15 C8.67 15 8.34 15 8 15 C7.67 11.7 7.34 8.4 7 5 C6.01 5 5.02 5 4 5 C4 4.01 4 3.02 4 2 C2.68 2 1.36 2 0 2 C0 1.34 0 0.68 0 0 Z " fill="#D1CDE4" transform="translate(65,87)"/>
<path d="M0 0 C0.598125 0.33 1.19625 0.66 1.8125 1 C4.05386471 2.20787988 4.05386471 2.20787988 7 2 C7.99 2 8.98 2 10 2 C10 3.32 10 4.64 10 6 C7.03 5.67 4.06 5.34 1 5 C0.67 3.35 0.34 1.7 0 0 Z " fill="#5E489F" transform="translate(31,71)"/>
<path d="M0 0 C0.66 0 1.32 0 2 0 C1.67 1.65 1.34 3.3 1 5 C2.32 5 3.64 5 5 5 C5 5.99 5 6.98 5 8 C3.02 8 1.04 8 -1 8 C-1.04241723 5.66705225 -1.04092937 3.33297433 -1 1 C-0.67 0.67 -0.34 0.34 0 0 Z " fill="#6B4EA3" transform="translate(47,184)"/>
<path d="M0 0 C0.99 0 1.98 0 3 0 C3.8125 1.6875 3.8125 1.6875 4 4 C1.5625 6.75 1.5625 6.75 -1 9 C-1.09765625 2.84765625 -1.09765625 2.84765625 -1 1 C-0.67 0.67 -0.34 0.34 0 0 Z " fill="#764C9E" transform="translate(17,136)"/>
<path d="M0 0 C0.99 0.495 0.99 0.495 2 1 C2 1.66 2 2.32 2 3 C2.66 3.33 3.32 3.66 4 4 C3.34 6.97 2.68 9.94 2 13 C-0.20914 9.68629 -0.22481553 8.6553979 -0.125 4.8125 C-0.10695313 3.91144531 -0.08890625 3.01039062 -0.0703125 2.08203125 C-0.04710938 1.39496094 -0.02390625 0.70789063 0 0 Z " fill="#6C4CA4" transform="translate(32,110)"/>
<path d="M0 0 C0.33 0.66 0.66 1.32 1 2 C1.66 2.33 2.32 2.66 3 3 C2.34 4.32 1.68 5.64 1 7 C0.01 6.67 -0.98 6.34 -2 6 C-2 5.01 -2 4.02 -2 3 C-2.66 2.67 -3.32 2.34 -4 2 C-2.68 1.34 -1.36 0.68 0 0 Z M-4 5 C-3.34 5.66 -2.68 6.32 -2 7 C-2.66 7 -3.32 7 -4 7 C-4 6.34 -4 5.68 -4 5 Z " fill="#E9EBE9" transform="translate(180,120)"/>
<path d="M0 0 C0 3.63 0 7.26 0 11 C-0.99 10.67 -1.98 10.34 -3 10 C-2.67 7.69 -2.34 5.38 -2 3 C-2.66 3 -3.32 3 -4 3 C-4 2.34 -4 1.68 -4 1 C-2 0 -2 0 0 0 Z " fill="#F1EFFD" transform="translate(140,93)"/>
<path d="M0 0 C4.29 0 8.58 0 13 0 C12.34 1.32 11.68 2.64 11 4 C7.37 3.01 3.74 2.02 0 1 C0 0.67 0 0.34 0 0 Z " fill="#61588D" transform="translate(44,80)"/>
<path d="M0 0 C1.0625 1.875 1.0625 1.875 2 4 C1.67 4.66 1.34 5.32 1 6 C0.01 6 -0.98 6 -2 6 C-2 5.34 -2 4.68 -2 4 C-2.66 4 -3.32 4 -4 4 C-4 3.34 -4 2.68 -4 2 C-4.66 1.67 -5.32 1.34 -6 1 C-3 0 -3 0 0 0 Z " fill="#3E348D" transform="translate(91,56)"/>
<path d="M0 0 C0.99 1.32 1.98 2.64 3 4 C2.01 4 1.02 4 0 4 C-0.33 4.99 -0.66 5.98 -1 7 C-1.99 7 -2.98 7 -4 7 C-4.625 5.125 -4.625 5.125 -5 3 C-3 1 -3 1 0 0 Z " fill="#6558B1" transform="translate(60,44)"/>
<path d="M0 0 C0.33 0.66 0.66 1.32 1 2 C1.66 2 2.32 2 3 2 C3 3.98 3 5.96 3 8 C2.01 6.68 1.02 5.36 0 4 C-0.33 4.66 -0.66 5.32 -1 6 C-1.99 5.67 -2.98 5.34 -4 5 C-4 4.01 -4 3.02 -4 2 C-2.68 2 -1.36 2 0 2 C0 1.34 0 0.68 0 0 Z " fill="#403096" transform="translate(120,94)"/>
<path d="M0 0 C1.98 0 3.96 0 6 0 C5.67 1.32 5.34 2.64 5 4 C2.125 4.125 2.125 4.125 -1 4 C-1.66 3.34 -2.32 2.68 -3 2 C-2.01 2 -1.02 2 0 2 C0 1.34 0 0.68 0 0 Z " fill="#5C4596" transform="translate(42,76)"/>
<path d="M0 0 C0.99 0 1.98 0 3 0 C3.33 0.66 3.66 1.32 4 2 C4.33 1.34 4.66 0.68 5 0 C5.66 0.33 6.32 0.66 7 1 C7 2.65 7 4.3 7 6 C4.69 5.34 2.38 4.68 0 4 C0 2.68 0 1.36 0 0 Z " fill="#6C53A7" transform="translate(57,193)"/>
<path d="M0 0 C3 4 3 4 3 6 C2.34 6 1.68 6 1 6 C1 10.62 1 15.24 1 20 C0.67 20 0.34 20 0 20 C0 13.4 0 6.8 0 0 Z " fill="#352A75" transform="translate(132,126)"/>
<path d="M0 0 C1.65 0 3.3 0 5 0 C5.33 1.65 5.66 3.3 6 5 C3.03 4.505 3.03 4.505 0 4 C0 2.68 0 1.36 0 0 Z " fill="#FCFDED" transform="translate(64,119)"/>
<path d="M0 0 C0.33 2.31 0.66 4.62 1 7 C0.34 6.67 -0.32 6.34 -1 6 C-0.67 5.34 -0.34 4.68 0 4 C-0.66 4 -1.32 4 -2 4 C-2 4.66 -2 5.32 -2 6 C-2.66 6 -3.32 6 -4 6 C-4.33 4.35 -4.66 2.7 -5 1 C-2 0 -2 0 0 0 Z " fill="#F0EFF3" transform="translate(120,113)"/>
<path d="M0 0 C1.21236328 0.01353516 1.21236328 0.01353516 2.44921875 0.02734375 C3.37154297 0.04474609 3.37154297 0.04474609 4.3125 0.0625 C4.3125 0.3925 4.3125 0.7225 4.3125 1.0625 C1.28515625 1.30664062 1.28515625 1.30664062 -1.7421875 1.55078125 C-4.08269216 1.93643036 -4.08269216 1.93643036 -5.6875 5.0625 C-8.1625 4.0725 -8.1625 4.0725 -10.6875 3.0625 C-6.91890928 0.55010618 -4.42510751 -0.06413199 0 0 Z " fill="#E4E2F7" transform="translate(170.6875,78.9375)"/>
<path d="M0 0 C-0.99 0.495 -0.99 0.495 -2 1 C-2.65213292 3.02463255 -2.65213292 3.02463255 -3 5 C-4.32 5 -5.64 5 -7 5 C-6.625 2.5625 -6.625 2.5625 -6 0 C-3.50907189 -1.24546405 -2.58919267 -0.7767578 0 0 Z " fill="#6557AE" transform="translate(8,43)"/>
<path d="M0 0 C0 0.66 0 1.32 0 2 C0.99 2.33 1.98 2.66 3 3 C1.88625 3.103125 0.7725 3.20625 -0.375 3.3125 C-1.57125 3.539375 -2.7675 3.76625 -4 4 C-4.66 4.99 -5.32 5.98 -6 7 C-6.33 6.01 -6.66 5.02 -7 4 C-3.375 0 -3.375 0 0 0 Z " fill="#414691" transform="translate(57,0)"/>
<path d="M0 0 C0.99 0 1.98 0 3 0 C3.33 0.66 3.66 1.32 4 2 C4.66 1.34 5.32 0.68 6 0 C6 1.65 6 3.3 6 5 C4.35 5 2.7 5 1 5 C0.67 3.35 0.34 1.7 0 0 Z " fill="#6D59AE" transform="translate(90,193)"/>
<path d="M0 0 C1.98 0 3.96 0 6 0 C6 1.32 6 2.64 6 4 C4.35 3.67 2.7 3.34 1 3 C0.67 2.01 0.34 1.02 0 0 Z M0 4 C2 5 2 5 2 5 Z " fill="#806CBA" transform="translate(89,162)"/>
<path d="M0 0 C0.99 0 1.98 0 3 0 C3 0.66 3 1.32 3 2 C3.99 2.33 4.98 2.66 6 3 C5.01 3.495 5.01 3.495 4 4 C4.66 4.66 5.32 5.32 6 6 C4.35 6.33 2.7 6.66 1 7 C1.33 6.34 1.66 5.68 2 5 C1.01 4.34 0.02 3.68 -1 3 C-0.67 2.01 -0.34 1.02 0 0 Z " fill="#5C4F9D" transform="translate(65,81)"/>
<path d="M0 0 C-1 3 -1 3 -3 5 C-3 5.99 -3 6.98 -3 8 C-3.99 8.33 -4.98 8.66 -6 9 C-6 6.69 -6 4.38 -6 2 C-2.25 0 -2.25 0 0 0 Z " fill="#3A3A9B" transform="translate(102,8)"/>
<path d="M0 0 C0.66 0 1.32 0 2 0 C2.33 1.32 2.66 2.64 3 4 C2.34 4 1.68 4 1 4 C0.67 4.99 0.34 5.98 0 7 C-0.99 7.33 -1.98 7.66 -3 8 C-3.33 7.01 -3.66 6.02 -4 5 C-3.01 5 -2.02 5 -1 5 C-0.67 3.35 -0.34 1.7 0 0 Z " fill="#373F99" transform="translate(75,0)"/>
<path d="M0 0 C-1.32 0.33 -2.64 0.66 -4 1 C-4 2.32 -4 3.64 -4 5 C-4.99 4.67 -5.98 4.34 -7 4 C-7.99 4.33 -8.98 4.66 -10 5 C-9.67 3.68 -9.34 2.36 -9 1 C-5.92677456 0.08941469 -3.19902639 -0.08886184 0 0 Z " fill="#3C2E8D" transform="translate(210,192)"/>
<path d="M0 0 C0 0.66 0 1.32 0 2 C-2.64 2.66 -5.28 3.32 -8 4 C-8 2.68 -8 1.36 -8 0 C-5.13822943 -1.43088528 -3.06624227 -0.59991697 0 0 Z " fill="#F7EFFC" transform="translate(59,155)"/>
<path d="M0 0 C0.66 1.32 1.32 2.64 2 4 C1.67 4.33 1.34 4.66 1 5 C1.33 5.99 1.66 6.98 2 8 C1.34 8 0.68 8 0 8 C0 7.34 0 6.68 0 6 C-1.32 6 -2.64 6 -4 6 C-4.33 5.01 -4.66 4.02 -5 3 C-4.360625 2.87625 -3.72125 2.7525 -3.0625 2.625 C-2.0415625 2.315625 -2.0415625 2.315625 -1 2 C-0.67 1.34 -0.34 0.68 0 0 Z " fill="#E8E7ED" transform="translate(163,142)"/>
<path d="M0 0 C1.2065625 0.0309375 1.2065625 0.0309375 2.4375 0.0625 C2.1075 0.7225 1.7775 1.3825 1.4375 2.0625 C0.7775 2.0625 0.1175 2.0625 -0.5625 2.0625 C-0.5625 3.7125 -0.5625 5.3625 -0.5625 7.0625 C-1.5525 7.0625 -2.5425 7.0625 -3.5625 7.0625 C-3.60504356 5.06295254 -3.60330783 3.06208364 -3.5625 1.0625 C-2.5625 0.0625 -2.5625 0.0625 0 0 Z " fill="#4B4C9C" transform="translate(51.5625,-0.0625)"/>
<path d="M0 0 C0.66 0 1.32 0 2 0 C2.33 2.31 2.66 4.62 3 7 C2.01 7 1.02 7 0 7 C0 6.34 0 5.68 0 5 C-0.66 5 -1.32 5 -2 5 C-1.125 1.125 -1.125 1.125 0 0 Z " fill="#FBFCEE" transform="translate(92,137)"/>
<path d="M0 0 C0 0.99 0 1.98 0 3 C-2.3125 3.6875 -2.3125 3.6875 -5 4 C-6.8125 2.5625 -6.8125 2.5625 -8 1 C-5.29120665 -0.35439668 -2.99066732 -0.06501451 0 0 Z " fill="#4A3AA7" transform="translate(96,90)"/>
<path d="M0 0 C2.48448024 1.24224012 4.67054766 2.44703177 7 4 C5.865625 4.12375 4.73125 4.2475 3.5625 4.375 C1.7990625 4.684375 1.7990625 4.684375 0 5 C-0.33 5.66 -0.66 6.32 -1 7 C-1.04254356 5.00045254 -1.04080783 2.99958364 -1 1 C-0.67 0.67 -0.34 0.34 0 0 Z " fill="#573F93" transform="translate(31,73)"/>
<path d="M0 0 C1.32 0.33 2.64 0.66 4 1 C4.33 3.97 4.66 6.94 5 10 C3 9 3 9 2.1484375 6.93359375 C1.89320313 6.10988281 1.63796875 5.28617188 1.375 4.4375 C1.11460937 3.61121094 0.85421875 2.78492188 0.5859375 1.93359375 C0.39257812 1.29550781 0.19921875 0.65742187 0 0 Z " fill="#4852AC" transform="translate(143,38)"/>
<path d="M0 0 C0.99 0.33 1.98 0.66 3 1 C3.33 1.99 3.66 2.98 4 4 C2.02253397 4.73080266 0.01927511 5.39421747 -2 6 C-2.66 5.67 -3.32 5.34 -4 5 C-3.67 4.01 -3.34 3.02 -3 2 C-3 2.66 -3 3.32 -3 4 C-2.01 4 -1.02 4 0 4 C0 2.68 0 1.36 0 0 Z " fill="#2B3F95" transform="translate(147,32)"/>
<path d="M0 0 C1.98 0.495 1.98 0.495 4 1 C4.33 2.65 4.66 4.3 5 6 C2.03 5.505 2.03 5.505 -1 5 C-0.34 4.67 0.32 4.34 1 4 C0.67 2.68 0.34 1.36 0 0 Z " fill="#6E54AA" transform="translate(82,217)"/>
<path d="M0 0 C2 3 2 3 2 5 C2.66 5.33 3.32 5.66 4 6 C3.67 6.66 3.34 7.32 3 8 C2.01 7.67 1.02 7.34 0 7 C-1.1875 4.4375 -1.1875 4.4375 -2 2 C-1.34 1.34 -0.68 0.68 0 0 Z " fill="#EBEAF2" transform="translate(79,140)"/>
<path d="M0 0 C1 2 1 2 1 6 C1.66 6.66 2.32 7.32 3 8 C1.02 8 -0.96 8 -3 8 C-2.814375 7.21625 -2.62875 6.4325 -2.4375 5.625 C-1.74037734 3.02910225 -1.74037734 3.02910225 -3 1 C-2.01 0.67 -1.02 0.34 0 0 Z " fill="#372A87" transform="translate(115,72)"/>
<path d="M0 0 C0.99 0.33 1.98 0.66 3 1 C1.19587357 4.26460973 0.16605307 5.88929795 -3 8 C-3 6.35 -3 4.7 -3 3 C-2.34 3 -1.68 3 -1 3 C-0.67 2.01 -0.34 1.02 0 0 Z " fill="#120E43" transform="translate(181,16)"/>
<path d="M0 0 C3.96 0.33 7.92 0.66 12 1 C12 1.33 12 1.66 12 2 C6.06 2.495 6.06 2.495 0 3 C0 2.01 0 1.02 0 0 Z " fill="#3F3486" transform="translate(165,162)"/>
<path d="M0 0 C1.32 0 2.64 0 4 0 C4 3.3 4 6.6 4 10 C3.01 10 2.02 10 1 10 C1.66 7.03 2.32 4.06 3 1 C2.01 0.67 1.02 0.34 0 0 Z " fill="#F0F2F4" transform="translate(135,113)"/>
<path d="M0 0 C0.99 0 1.98 0 3 0 C5.125 4.625 5.125 4.625 4 8 C3.67 7.01 3.34 6.02 3 5 C2.01 5 1.02 5 0 5 C0 3.35 0 1.7 0 0 Z " fill="#F3F2EC" transform="translate(42,105)"/>
<path d="M0 0 C0.99 0 1.98 0 3 0 C3 2.31 3 4.62 3 7 C2.01 6.67 1.02 6.34 0 6 C0 4.02 0 2.04 0 0 Z " fill="#FBFDE9" transform="translate(135,96)"/>
<path d="M0 0 C0.66 0 1.32 0 2 0 C2.33 1.98 2.66 3.96 3 6 C1.35 6.33 -0.3 6.66 -2 7 C-1.34 4.69 -0.68 2.38 0 0 Z " fill="#352F8E" transform="translate(144,83)"/>
<path d="M0 0 C2.97 0.495 2.97 0.495 6 1 C6 1.99 6 2.98 6 4 C4.35 4 2.7 4 1 4 C0.67 2.68 0.34 1.36 0 0 Z " fill="#393388" transform="translate(160,76)"/>
<path d="M0 0 C0.99 0.66 1.98 1.32 3 2 C2.01 2.33 1.02 2.66 0 3 C-0.73323796 5.01508358 -0.73323796 5.01508358 -1 7 C-2.5 5.6875 -2.5 5.6875 -4 4 C-4 3.01 -4 2.02 -4 1 C-2.02 1.495 -2.02 1.495 0 2 C0 1.34 0 0.68 0 0 Z " fill="#2A469F" transform="translate(133,13)"/>
<path d="M0 0 C-0.33 1.65 -0.66 3.3 -1 5 C-1.66 5 -2.32 5 -3 5 C-4.625 3 -4.625 3 -6 1 C-4 0 -4 0 0 0 Z " fill="#423A78" transform="translate(184,154)"/>
<path d="M0 0 C7.42857143 -0.28571429 7.42857143 -0.28571429 11 2 C11 2.66 11 3.32 11 4 C10.01 4.33 9.02 4.66 8 5 C8 4.01 8 3.02 8 2 C5.36 1.67 2.72 1.34 0 1 C0 0.67 0 0.34 0 0 Z " fill="#A7A7A6" transform="translate(169,151)"/>
<path d="M0 0 C2 1 2 1 2.8515625 3.06640625 C3.10679687 3.89011719 3.36203125 4.71382812 3.625 5.5625 C3.88539063 6.38878906 4.14578125 7.21507812 4.4140625 8.06640625 C4.60742188 8.70449219 4.80078125 9.34257812 5 10 C4.01 9.34 3.02 8.68 2 8 C2 7.34 2 6.68 2 6 C1.34 6 0.68 6 0 6 C0 4.02 0 2.04 0 0 Z " fill="#423A72" transform="translate(142,141)"/>
<path d="M0 0 C2.18975773 3.28463659 2.99806563 6.20696275 4 10 C3.01 10.495 3.01 10.495 2 11 C1.01 7.7 0.02 4.4 -1 1 C-0.67 0.67 -0.34 0.34 0 0 Z " fill="#5C538B" transform="translate(76,140)"/>
<path d="M0 0 C2.475 0.99 2.475 0.99 5 2 C5 3.98 5 5.96 5 8 C2.5 5.6875 2.5 5.6875 0 3 C0 2.01 0 1.02 0 0 Z " fill="#483C8D" transform="translate(131,124)"/>
<path d="M0 0 C0.33 0 0.66 0 1 0 C1.33 3.3 1.66 6.6 2 10 C2.99 10.33 3.98 10.66 5 11 C3.68 11.33 2.36 11.66 1 12 C-1.23551759 8.64672361 -1.17283528 8.09256343 -0.625 4.3125 C-0.51414062 3.50425781 -0.40328125 2.69601563 -0.2890625 1.86328125 C-0.19367188 1.24839844 -0.09828125 0.63351563 0 0 Z " fill="#F2EFFC" transform="translate(108,120)"/>
<path d="M0 0 C0.99 0.33 1.98 0.66 3 1 C3 2.65 3 4.3 3 6 C1.68 5.67 0.36 5.34 -1 5 C-0.67 3.35 -0.34 1.7 0 0 Z " fill="#6F56AA" transform="translate(27,104)"/>
<path d="M0 0 C0.66 0 1.32 0 2 0 C1.34 1.98 0.68 3.96 0 6 C-1.65 5.67 -3.3 5.34 -5 5 C-3.33333333 3.33333333 -1.66666667 1.66666667 0 0 Z " fill="#3A2E9B" transform="translate(138,84)"/>
<path d="M0 0 C2.31 0.33 4.62 0.66 7 1 C4.33333333 2.33333333 1.66666667 3.66666667 -1 5 C-1 2 -1 2 0 0 Z " fill="#3C318E" transform="translate(113,55)"/>
<path d="M0 0 C0.99 0.33 1.98 0.66 3 1 C3.33 2.98 3.66 4.96 4 7 C2.68 6.67 1.36 6.34 0 6 C0 4.02 0 2.04 0 0 Z " fill="#5749A0" transform="translate(19,41)"/>
<path d="M0 0 C0.99 0.33 1.98 0.66 3 1 C3 3.31 3 5.62 3 8 C2.01 8 1.02 8 0 8 C0 5.36 0 2.72 0 0 Z " fill="#896EB9" transform="translate(2,168)"/>
<path d="M0 0 C1.74627478 2.61941217 2.38722388 4.03824877 3 7 C1.35 6.67 -0.3 6.34 -2 6 C-1.34 4.02 -0.68 2.04 0 0 Z " fill="#5B4CA4" transform="translate(74,144)"/>
<path d="M0 0 C0.66 0 1.32 0 2 0 C2.33 2.64 2.66 5.28 3 8 C2.01 8.495 2.01 8.495 1 9 C1 7.68 1 6.36 1 5 C0.34 4.67 -0.32 4.34 -1 4 C-0.67 2.68 -0.34 1.36 0 0 Z " fill="#F7F9ED" transform="translate(95,128)"/>
<path d="M0 0 C0.99 0 1.98 0 3 0 C3 1.98 3 3.96 3 6 C2.01 6 1.02 6 0 6 C0 4.02 0 2.04 0 0 Z " fill="#37318C" transform="translate(139,106)"/>
<path d="M0 0 C0.66 0 1.32 0 2 0 C2 0.99 2 1.98 2 3 C2.66 3 3.32 3 4 3 C3.67 3.99 3.34 4.98 3 6 C1.68 6 0.36 6 -1 6 C-0.67 4.02 -0.34 2.04 0 0 Z " fill="#5F51A6" transform="translate(44,58)"/>
<path d="M0 0 C0.99 0 1.98 0 3 0 C3 1.32 3 2.64 3 4 C1.68 4.33 0.36 4.66 -1 5 C-1 1 -1 1 0 0 Z " fill="#7365B9" transform="translate(14,41)"/>
<path d="M0 0 C0.33 0.66 0.66 1.32 1 2 C1.99 2.33 2.98 2.66 4 3 C2.68 3.99 1.36 4.98 0 6 C-0.66 4.68 -1.32 3.36 -2 2 C-1.34 1.34 -0.68 0.68 0 0 Z " fill="#160D44" transform="translate(188,26)"/>
<path d="M0 0 C2.00720923 0.28674418 4.0085944 0.61866701 6 1 C6 1.99 6 2.98 6 4 C4.02 4 2.04 4 0 4 C-0.33 3.01 -0.66 2.02 -1 1 C-0.67 0.67 -0.34 0.34 0 0 Z " fill="#586EC1" transform="translate(141,8)"/>
<path d="M0 0 C1.65 0.33 3.3 0.66 5 1 C5 1.99 5 2.98 5 4 C3.02 4 1.04 4 -1 4 C-0.67 2.68 -0.34 1.36 0 0 Z " fill="#6D61B5" transform="translate(116,171)"/>
<path d="M0 0 C2.97 0.495 2.97 0.495 6 1 C5.34 1.66 4.68 2.32 4 3 C2.68 3 1.36 3 0 3 C-0.33 3.66 -0.66 4.32 -1 5 C-0.67 3.35 -0.34 1.7 0 0 Z " fill="#B9B0BD" transform="translate(41,149)"/>
<path d="M0 0 C0.66 0 1.32 0 2 0 C2 3.96 2 7.92 2 12 C1.67 12 1.34 12 1 12 C1 9.03 1 6.06 1 3 C0.34 3 -0.32 3 -1 3 C-0.67 2.01 -0.34 1.02 0 0 Z " fill="#E0DBEB" transform="translate(57,124)"/>
<path d="M0 0 C2.38564077 0.57584432 4.66682784 1.22227595 7 2 C7 1.34 7 0.68 7 0 C7.99 0 8.98 0 10 0 C9.67 0.99 9.34 1.98 9 3 C3.46153846 3.36923077 3.46153846 3.36923077 1.125 1.5 C0.75375 1.005 0.3825 0.51 0 0 Z " fill="#413676" transform="translate(101,98)"/>
<path d="M0 0 C1.74627478 2.61941217 2.38722388 4.03824877 3 7 C2.01 7 1.02 7 0 7 C-0.66 5.35 -1.32 3.7 -2 2 C-1.34 1.34 -0.68 0.68 0 0 Z " fill="#D0CCDC" transform="translate(79,96)"/>
<path d="M0 0 C1.98 0 3.96 0 6 0 C6 1.32 6 2.64 6 4 C4.68 3.67 3.36 3.34 2 3 C2 2.34 2 1.68 2 1 C1.34 0.67 0.68 0.34 0 0 Z " fill="#43358D" transform="translate(102,96)"/>
<path d="M0 0 C1.98 0 3.96 0 6 0 C6 0.66 6 1.32 6 2 C4.02 2.66 2.04 3.32 0 4 C-0.66 3.34 -1.32 2.68 -2 2 C-1.34 2 -0.68 2 0 2 C0 1.34 0 0.68 0 0 Z " fill="#EBEDE9" transform="translate(156,94)"/>
<path d="M0 0 C1.98 0 3.96 0 6 0 C5.67 0.99 5.34 1.98 5 3 C3.35 3 1.7 3 0 3 C0 2.01 0 1.02 0 0 Z " fill="#5F64A1" transform="translate(157,0)"/>
</svg>
